<?xml version="1.0" standalone="no"?><!-- Generator: Gravit.io --><svg xmlns="http://www.w3.org/2000/svg" xmlns:xlink="http://www.w3.org/1999/xlink" style="isolation:isolate" viewBox="0 0 88.871 88.871" class="circle1"><defs><clipPath id="_clipPath_1b0ZUnSK5OY9IQAnYGnk3bFpQ67SfSge"><rect width="88.871" height="88.871"/></clipPath></defs><g clip-path="url(#_clipPath_1b0ZUnSK5OY9IQAnYGnk3bFpQ67SfSge)"><path d=" M 86.245 56.462 L 78.516 53.397 C 80.249 46.934 79.982 40.338 78.183 34.275 L 85.845 30.943 C 87.977 30.01 88.91 27.545 87.977 25.48 C 87.541 24.468 86.717 23.674 85.691 23.273 C 84.664 22.873 83.52 22.899 82.514 23.347 L 74.852 26.679 C 71.59 21.075 66.839 16.485 61.126 13.42 L 64.191 5.691 C 65.037 3.557 63.993 1.14 61.859 0.294 C 59.725 -0.552 57.308 0.492 56.462 2.626 L 53.397 10.355 C 46.934 8.622 40.338 8.889 34.275 10.688 L 30.943 3.026 C 30.506 2.014 29.683 1.22 28.656 0.819 C 27.63 0.419 26.486 0.445 25.48 0.894 C 24.468 1.33 23.674 2.154 23.273 3.18 C 22.873 4.207 22.899 5.351 23.347 6.357 L 26.679 14.019 C 21.075 17.281 16.485 22.032 13.42 27.745 L 5.691 24.68 C 3.557 23.834 1.14 24.878 0.294 27.012 C -0.552 29.146 0.492 31.563 2.626 32.409 L 10.355 35.474 C 8.622 41.937 8.889 48.533 10.688 54.596 L 3.026 57.928 C 2.014 58.365 1.22 59.188 0.819 60.215 C 0.419 61.241 0.445 62.385 0.894 63.391 C 1.326 64.407 2.149 65.205 3.177 65.606 C 4.205 66.007 5.351 65.977 6.357 65.524 L 14.019 62.192 C 17.218 67.656 21.882 72.32 27.745 75.451 L 24.68 83.18 C 23.834 85.314 24.878 87.731 27.012 88.577 C 29.146 89.423 31.563 88.379 32.409 86.245 L 35.474 78.516 C 41.937 80.249 48.533 79.982 54.596 78.183 L 57.928 85.845 C 58.36 86.86 59.184 87.659 60.212 88.06 C 61.239 88.461 62.386 88.431 63.391 87.977 C 65.524 87.045 66.456 84.579 65.524 82.514 L 62.192 74.852 C 67.656 71.653 72.32 66.989 75.451 61.126 L 83.18 64.191 C 85.314 65.037 87.731 63.993 88.577 61.859 C 89.423 59.725 88.379 57.308 86.245 56.462 L 86.245 56.462 Z  M 36.673 63.924 C 25.946 59.66 20.616 47.534 24.88 36.806 C 26.909 31.644 30.907 27.5 35.994 25.288 C 41.081 23.076 46.838 22.977 51.998 25.013 C 57.16 27.042 61.304 31.04 63.517 36.127 C 65.729 41.214 65.828 46.972 63.791 52.131 C 61.768 57.298 57.77 61.447 52.682 63.66 C 47.593 65.873 41.832 65.968 36.673 63.924 L 36.673 63.924 Z " fill="rgb(78,199,232)"/></g></svg>
