<?xml version="1.0" standalone="no"?><!-- Generator: Gravit.io --><svg xmlns="http://www.w3.org/2000/svg" xmlns:xlink="http://www.w3.org/1999/xlink" style="isolation:isolate" viewBox="0 0 58.533 58.533" class="circle2"><defs><clipPath id="_clipPath_it5yN9T4SeKyTiyJUvhwwkQT5OITXEje"><rect width="58.533" height="58.533"/></clipPath></defs><g clip-path="url(#_clipPath_it5yN9T4SeKyTiyJUvhwwkQT5OITXEje)"><path d=" M 56.818 37.162 L 51.687 35.163 C 52.82 30.899 52.687 26.568 51.487 22.57 L 56.551 20.372 C 57.95 19.772 58.55 18.173 57.95 16.774 C 57.351 15.375 55.752 14.775 54.352 15.375 L 49.289 17.573 C 47.125 13.889 43.99 10.869 40.227 8.845 L 42.226 3.714 C 42.759 2.315 42.093 0.716 40.694 0.183 C 39.294 -0.35 37.695 0.316 37.162 1.716 L 35.163 6.846 C 30.899 5.713 26.568 5.847 22.57 7.046 L 20.372 1.982 C 19.772 0.583 18.173 -0.017 16.774 0.583 C 15.375 1.183 14.775 2.782 15.375 4.181 L 17.573 9.245 C 13.889 11.408 10.869 14.543 8.845 18.306 L 3.714 16.307 C 2.315 15.774 0.716 16.441 0.183 17.84 C -0.35 19.239 0.316 20.838 1.716 21.371 L 6.846 23.37 C 5.713 27.634 5.847 31.965 7.046 35.963 L 1.982 38.162 C 0.583 38.761 -0.017 40.36 0.583 41.76 C 0.916 42.426 1.449 42.959 2.115 43.225 C 2.782 43.492 3.515 43.492 4.181 43.159 L 9.245 40.96 C 11.408 44.645 14.543 47.664 18.306 49.688 L 16.307 54.819 C 15.774 56.218 16.441 57.817 17.84 58.35 C 19.239 58.883 20.838 58.217 21.371 56.818 L 23.37 51.687 C 27.634 52.82 31.965 52.687 35.963 51.487 L 38.162 56.551 C 38.495 57.217 39.028 57.751 39.694 58.017 C 40.36 58.284 41.093 58.284 41.76 57.95 C 43.159 57.351 43.758 55.752 43.159 54.352 L 40.96 49.289 C 44.645 47.125 47.664 43.99 49.688 40.227 L 54.819 42.226 C 56.218 42.759 57.817 42.093 58.35 40.694 C 58.883 39.294 58.217 37.695 56.818 37.162 L 56.818 37.162 Z  M 26.635 35.963 C 22.904 34.497 21.105 30.299 22.57 26.635 C 24.036 22.904 28.234 21.105 31.899 22.57 C 35.63 24.036 37.429 28.234 35.963 31.899 C 34.497 35.563 30.299 37.429 26.635 35.963 Z " fill="rgb(242,152,33)"/></g></svg>
