<?xml version="1.0" standalone="no"?><!-- Generator: Gravit.io --><svg xmlns="http://www.w3.org/2000/svg" class="cloud" xmlns:xlink="http://www.w3.org/1999/xlink" style="isolation:isolate" viewBox="0 0 292.367 166.239"><defs><clipPath id="_clipPath_d5aYWRXmP7nzqbpmzUF9jBaWoMULjuKX"><rect width="292.367" height="166.239"/></clipPath></defs><g clip-path="url(#_clipPath_d5aYWRXmP7nzqbpmzUF9jBaWoMULjuKX)"><g id="Cloud"><path d=" M 247.926 81.62 L 247.593 81.62 C 251.124 63.031 236.133 50.705 222.807 50.705 C 218.609 50.705 214.545 51.371 210.747 52.57 C 198.441 23.242 169.728 4.17 137.922 4.198 C 102.875 4.198 73.159 27.051 62.898 58.7 C 60.699 58.434 58.434 58.234 56.168 58.234 C 27.518 58.234 4.264 81.487 4.264 110.138 C 4.264 138.788 27.518 162.041 56.168 162.041 L 247.993 162.041 C 270.18 162.041 288.17 144.052 288.17 121.864 C 288.103 99.61 270.113 81.62 247.926 81.62 L 247.926 81.62 Z " fill="rgb(255,255,255)"/><path d=" M 247.926 166.239 L 56.102 166.239 C 25.119 166.239 0 141.053 0 110.138 C 0 79.222 25.186 54.036 56.102 54.036 C 57.367 54.036 58.633 54.103 59.966 54.169 C 72.026 21.654 102.942 0 137.922 0 C 170.303 0 199.42 18.589 213.079 47.64 C 216.277 46.907 219.542 46.574 222.807 46.574 C 231.269 46.574 239.997 50.771 245.661 57.567 C 250.325 63.231 252.657 70.227 252.324 77.689 C 274.777 79.888 292.367 98.877 292.367 121.864 C 292.301 146.317 272.379 166.239 247.926 166.239 L 247.926 166.239 Z  M 56.102 62.365 C 29.783 62.365 8.395 83.753 8.395 110.071 C 8.395 136.389 29.783 157.777 56.102 157.777 L 247.926 157.777 C 267.781 157.777 283.906 141.653 283.906 121.798 C 283.906 101.942 267.781 85.818 247.993 85.818 L 247.593 85.818 C 246.394 85.818 245.194 85.285 244.395 84.352 C 243.598 83.36 243.258 82.077 243.462 80.821 C 245.061 72.226 241.996 66.296 239.131 62.831 C 235.067 57.9 228.804 54.902 222.74 54.902 C 219.076 54.902 215.411 55.435 211.88 56.568 C 209.814 57.234 207.616 56.168 206.749 54.169 C 195.159 26.37 167.974 8.282 137.855 8.329 C 105.407 8.329 76.823 29.05 66.829 59.899 C 66.229 61.832 64.297 63.031 62.298 62.764 C 59.899 62.565 57.967 62.365 56.102 62.365 L 56.102 62.365 Z " fill="rgb(0,0,0)"/></g></g></svg>
