<?xml version="1.0" standalone="no"?><!-- Generator: Gravit.io --><svg xmlns="http://www.w3.org/2000/svg" xmlns:xlink="http://www.w3.org/1999/xlink" style="isolation:isolate" viewBox="0 0 1024 768"><defs><clipPath id="_clipPath_h7Lchzc9dZ2JJwwzid7ftwe0pHA3LeWc"><rect width="1024" height="768"/></clipPath></defs><g clip-path="url(#_clipPath_h7Lchzc9dZ2JJwwzid7ftwe0pHA3LeWc)"><g id="Draw"><defs><filter id="3HgD17nKAOh8iuVxRw0fZkXp90cezogH" x="-200%" y="-200%" width="400%" height="400%"><feGaussianBlur xmlns="http://www.w3.org/2000/svg" stdDeviation="5.796372234832688"/></filter></defs><g filter="url(#3HgD17nKAOh8iuVxRw0fZkXp90cezogH)"><path d=" M 199.98 724.204 C 199.98 715.954 294.144 709.257 410.129 709.257 C 526.113 709.257 620.277 715.954 620.277 724.204 C 620.277 732.454 526.113 739.152 410.129 739.152 C 294.144 739.152 199.98 732.454 199.98 724.204 Z " fill="rgb(23,23,23)"/></g><g id="Chair purple"><g id="Group"><path d=" M 322.59 471.44 C 312.213 464.3 304.715 443.929 304.715 419.94 C 304.715 395.95 312.213 375.579 322.59 368.439 C 312.213 361.299 304.715 340.928 304.715 316.939 C 304.715 287.019 316.378 262.728 330.745 262.728 C 345.111 262.728 356.775 287.019 356.775 316.939 C 356.775 340.928 349.276 361.299 338.899 368.439 C 349.276 375.579 356.775 395.95 356.775 419.94 C 356.775 443.929 349.276 464.3 338.899 471.44 C 349.276 478.58 356.775 498.951 356.775 522.941 C 356.775 552.861 345.111 577.152 330.745 577.152 C 316.378 577.152 304.715 552.861 304.715 522.941 C 304.715 498.951 312.213 478.58 322.59 471.44 Z " fill="rgb(153,0,255)"/><rect x="292.822" y="262.728" width="37.922" height="314.424" transform="matrix(1,0,0,1,0,0)" fill="rgb(46,46,46)"/><rect x="308.474" y="577.152" width="6.62" height="56.757" transform="matrix(1,0,0,1,0,0)" fill="rgb(23,23,23)"/><path d=" M 321.003 611.251 C 321.003 598.745 363.657 588.592 416.196 588.592 C 468.735 588.592 511.39 598.745 511.39 611.251 C 511.39 623.756 468.735 633.909 416.196 633.909 C 363.657 633.909 321.003 623.756 321.003 611.251 Z " fill="rgb(153,0,255)"/><rect x="307.248" y="611.251" width="204.142" height="35.271" transform="matrix(1,0,0,1,0,0)" fill="rgb(46,46,46)"/><g id="Group"><path d=" M 406.452 692.147 L 406.452 646.522 L 413.072 646.522 L 413.072 692.593 L 505.096 710.887 L 503.92 716.255 L 408.641 697.314 L 313.361 716.255 L 312.185 710.887 L 406.452 692.147 Z " fill="rgb(23,23,23)"/><path d=" M 307.467 719.045 C 307.467 713.824 311.917 709.586 317.397 709.586 C 322.877 709.586 327.327 713.824 327.327 719.045 C 327.327 724.266 322.877 728.505 317.397 728.505 C 311.917 728.505 307.467 724.266 307.467 719.045 Z " fill="rgb(70,70,70)" vector-effect="non-scaling-stroke" stroke-width="0.3" stroke="rgb(23,23,23)" stroke-linejoin="miter" stroke-linecap="square" stroke-miterlimit="3"/><path d=" M 490.391 719.045 C 490.391 713.824 494.841 709.586 500.321 709.586 C 505.801 709.586 510.25 713.824 510.25 719.045 C 510.25 724.266 505.801 728.505 500.321 728.505 C 494.841 728.505 490.391 724.266 490.391 719.045 Z " fill="rgb(70,70,70)" vector-effect="non-scaling-stroke" stroke-width="0.3" stroke="rgb(23,23,23)" stroke-linejoin="miter" stroke-linecap="square" stroke-miterlimit="3"/></g></g></g><rect x="767.101" y="308.321" width="17.3" height="147.178" transform="matrix(1,0,0,1,0,0)" fill="rgb(93,93,93)"/><path d=" M 782.202 483.106 L 782.202 454.297 L 777.682 454.297 L 777.682 483.207 L 768.189 488.004 L 756.247 494.038 L 778.858 493.851 L 801.469 493.663 L 790.8 487.817 L 782.202 483.106 Z " fill="rgb(235,235,235)" vector-effect="non-scaling-stroke" stroke-width="1" stroke="rgb(93,93,93)" stroke-linejoin="miter" stroke-linecap="square" stroke-miterlimit="3"/><g id="Cloud"><path d=" M 738.917 110.468 L 738.584 110.468 C 742.115 91.879 727.124 79.552 713.798 79.552 C 709.6 79.552 705.536 80.219 701.738 81.418 C 689.431 52.089 660.719 33.018 628.913 33.045 C 593.866 33.045 564.149 55.899 553.888 87.548 C 551.69 87.281 549.424 87.081 547.159 87.081 C 518.509 87.081 495.255 110.335 495.255 138.985 C 495.255 167.636 518.509 190.889 547.159 190.889 L 738.983 190.889 C 761.171 190.889 779.161 172.899 779.161 150.712 C 779.094 128.458 761.104 110.468 738.917 110.468 L 738.917 110.468 Z " fill="rgb(255,255,255)"/><path d=" M 738.917 195.087 L 547.092 195.087 C 516.11 195.087 490.991 169.901 490.991 138.985 C 490.991 108.07 516.176 82.884 547.092 82.884 C 548.358 82.884 549.624 82.95 550.957 83.017 C 563.017 50.502 593.932 28.848 628.913 28.848 C 661.294 28.848 690.411 47.437 704.07 76.487 C 707.268 75.755 710.533 75.421 713.798 75.421 C 722.26 75.421 730.988 79.619 736.651 86.415 C 741.315 92.079 743.647 99.075 743.314 106.537 C 765.768 108.736 783.358 127.725 783.358 150.712 C 783.292 175.165 763.37 195.087 738.917 195.087 L 738.917 195.087 Z  M 547.092 91.212 C 520.774 91.212 499.386 112.6 499.386 138.919 C 499.386 165.237 520.774 186.625 547.092 186.625 L 738.917 186.625 C 758.772 186.625 774.896 170.501 774.896 150.645 C 774.896 130.79 758.772 114.666 738.983 114.666 L 738.584 114.666 C 737.384 114.666 736.185 114.133 735.386 113.2 C 734.588 112.208 734.249 110.925 734.453 109.669 C 736.052 101.074 732.987 95.144 730.122 91.679 C 726.057 86.748 719.794 83.75 713.731 83.75 C 710.067 83.75 706.402 84.283 702.871 85.416 C 700.805 86.082 698.606 85.016 697.74 83.017 C 686.15 55.218 658.964 37.13 628.846 37.176 C 596.398 37.176 567.814 57.898 557.82 88.747 C 557.22 90.679 555.288 91.879 553.289 91.612 C 550.89 91.412 548.958 91.212 547.092 91.212 L 547.092 91.212 Z " fill="rgb(0,0,0)"/><path d=" M 654.431 134.721 L 646.702 131.656 C 648.435 125.193 648.168 118.597 646.369 112.534 L 654.032 109.202 C 656.164 108.269 657.097 105.804 656.164 103.739 C 655.727 102.727 654.903 101.933 653.877 101.532 C 652.851 101.132 651.707 101.158 650.7 101.607 L 643.038 104.938 C 639.777 99.334 635.026 94.744 629.312 91.679 L 632.377 83.95 C 633.224 81.816 632.18 79.399 630.045 78.553 C 627.911 77.707 625.495 78.751 624.648 80.885 L 621.583 88.614 C 615.12 86.882 608.524 87.148 602.461 88.947 L 599.129 81.285 C 598.693 80.273 597.869 79.479 596.843 79.078 C 595.816 78.678 594.672 78.705 593.666 79.153 C 592.654 79.59 591.86 80.413 591.459 81.439 C 591.059 82.466 591.086 83.61 591.534 84.616 L 594.865 92.279 C 589.261 95.54 584.672 100.291 581.606 106.004 L 573.877 102.939 C 571.743 102.093 569.327 103.137 568.48 105.271 C 567.634 107.405 568.678 109.822 570.812 110.668 L 578.541 113.733 C 576.809 120.196 577.075 126.792 578.874 132.855 L 571.212 136.187 C 570.201 136.624 569.406 137.447 569.005 138.474 C 568.605 139.5 568.632 140.644 569.08 141.651 C 569.512 142.666 570.336 143.464 571.363 143.865 C 572.391 144.266 573.538 144.236 574.543 143.783 L 582.206 140.451 C 585.404 145.915 590.068 150.579 595.931 153.71 L 592.866 161.439 C 592.02 163.574 593.064 165.99 595.198 166.836 C 597.333 167.683 599.749 166.638 600.595 164.504 L 603.66 156.775 C 610.123 158.508 616.719 158.241 622.783 156.442 L 626.114 164.104 C 626.547 165.12 627.37 165.918 628.398 166.319 C 629.426 166.72 630.572 166.69 631.578 166.237 C 633.71 165.304 634.643 162.838 633.71 160.773 L 630.378 153.111 C 635.842 149.912 640.506 145.248 643.638 139.385 L 651.366 142.45 C 653.501 143.296 655.917 142.252 656.763 140.118 C 657.61 137.984 656.566 135.567 654.431 134.721 L 654.431 134.721 Z  M 604.86 142.184 C 594.132 137.919 588.802 125.793 593.066 115.066 C 595.095 109.903 599.093 105.759 604.18 103.547 C 609.267 101.335 615.025 101.236 620.184 103.272 C 625.347 105.301 629.491 109.299 631.703 114.386 C 633.915 119.473 634.014 125.231 631.977 130.39 C 629.954 135.557 625.957 139.706 620.868 141.919 C 615.779 144.132 610.019 144.227 604.86 142.184 L 604.86 142.184 Z " fill="rgb(78,199,232)"/><path d=" M 710.6 146.381 L 705.469 144.382 C 706.602 140.118 706.469 135.787 705.269 131.789 L 710.333 129.591 C 711.732 128.991 712.332 127.392 711.732 125.993 C 711.133 124.594 709.533 123.994 708.134 124.594 L 703.07 126.792 C 700.907 123.108 697.772 120.088 694.009 118.064 L 696.008 112.933 C 696.541 111.534 695.875 109.935 694.475 109.402 C 693.076 108.869 691.477 109.535 690.944 110.935 L 688.945 116.065 C 684.681 114.932 680.35 115.066 676.352 116.265 L 674.154 111.201 C 673.554 109.802 671.955 109.202 670.556 109.802 C 669.156 110.402 668.557 112.001 669.156 113.4 L 671.355 118.464 C 667.67 120.627 664.651 123.762 662.627 127.525 L 657.496 125.526 C 656.097 124.993 654.498 125.66 653.965 127.059 C 653.432 128.458 654.098 130.057 655.497 130.59 L 660.628 132.589 C 659.495 136.853 659.628 141.184 660.828 145.182 L 655.764 147.381 C 654.365 147.98 653.765 149.579 654.365 150.979 C 654.698 151.645 655.231 152.178 655.897 152.444 C 656.564 152.711 657.296 152.711 657.963 152.378 L 663.027 150.179 C 665.19 153.864 668.325 156.883 672.088 158.907 L 670.089 164.038 C 669.556 165.437 670.222 167.036 671.622 167.569 C 673.021 168.102 674.62 167.436 675.153 166.037 L 677.152 160.906 C 681.416 162.039 685.747 161.906 689.745 160.706 L 691.943 165.77 C 692.277 166.436 692.81 166.969 693.476 167.236 C 694.142 167.502 694.875 167.502 695.541 167.169 C 696.941 166.57 697.54 164.971 696.941 163.571 L 694.742 158.508 C 698.427 156.344 701.446 153.209 703.47 149.446 L 708.601 151.445 C 710 151.978 711.599 151.312 712.132 149.912 C 712.665 148.513 711.999 146.914 710.6 146.381 L 710.6 146.381 Z  M 680.417 145.182 C 676.685 143.716 674.886 139.518 676.352 135.854 C 677.818 132.123 682.016 130.324 685.68 131.789 C 689.412 133.255 691.211 137.453 689.745 141.117 C 688.279 144.782 684.081 146.648 680.417 145.182 Z " fill="rgb(242,152,33)"/></g><g id="Me Coding"><g id="Me Coding"><path d=" M 450.086 366.02 L 473.236 371.679 L 449.057 380.425 L 450.086 366.02 Z " fill="rgb(4,4,47)" vector-effect="non-scaling-stroke" stroke-width="0.2" stroke="rgb(0,0,0)" stroke-linejoin="miter" stroke-linecap="square" stroke-miterlimit="3"/><g id="Left arm"><g id="Left hand"><g id="Group"><path d=" M 561.395 447.714 L 582.368 457.632 Q 583.019 461.697 577.491 460.884 Q 571.963 460.071 561.07 454.055 L 561.395 447.714 Z " fill="rgb(153,124,78)" vector-effect="non-scaling-stroke" stroke-width="0.2" stroke="rgb(0,0,0)" stroke-linejoin="miter" stroke-linecap="square" stroke-miterlimit="3"/><path d=" M 540.62 471.431 C 538.803 472.516 536.655 473.555 535.702 473.906 Q 534.033 474.52 526.241 473.906 L 523.403 458.059 Q 535.713 454.737 537.442 454.737 C 539.17 454.737 556.787 445.286 558.409 445.286 C 559.04 445.286 562.529 448.638 566.483 452.807 Q 580.95 459.5 580.95 460.769 C 580.95 461.974 578.012 462.853 574.922 462.221 C 577.765 465.613 579.698 468.274 579.286 468.685 C 578.033 469.938 574.999 468.852 573.732 468.438 C 572.674 468.093 564.127 459.69 560.833 456.921 L 559.877 457.331 L 554.696 459.551 C 553.409 460.563 551.997 461.7 550.621 462.832 L 556.192 462.522 C 559.281 462.359 565.785 463.985 563.346 466.424 Q 560.907 468.863 549.201 470.651 L 540.62 471.431 Z " fill="rgb(183,150,96)" vector-effect="non-scaling-stroke" stroke-width="0.2" stroke="rgb(0,0,0)" stroke-linejoin="miter" stroke-linecap="square" stroke-miterlimit="3"/></g><path d=" M 575.094 462.219 C 570.538 461.167 563.714 456.965 559.896 457.258" fill="none" vector-effect="non-scaling-stroke" stroke-width="0.1" stroke="rgb(0,0,0)" stroke-linejoin="miter" stroke-linecap="square" stroke-miterlimit="3"/><path d=" M 550.621 454.925 C 552.795 452.207 559.782 450.783 560.022 450.645 C 560.033 450.532 564.876 451.856 566.517 452.878" fill="none" vector-effect="non-scaling-stroke" stroke-width="0.1" stroke="rgb(0,0,0)" stroke-linejoin="miter" stroke-linecap="square" stroke-miterlimit="3"/></g><path d=" M 434.204 494.429 L 434.196 494.437 Q 401.286 440.584 401.286 417.247 C 401.286 393.911 418.639 370.575 434.795 389.722 Q 450.814 408.708 462.126 467.695 L 462.32 467.51 L 525.148 456.141 L 529.337 477.683 Q 456.981 503.354 445.565 500.421 Q 437.548 498.36 434.204 494.429 Z " fill="rgb(3,3,53)" vector-effect="non-scaling-stroke" stroke-width="0.2" stroke="rgb(0,0,0)" stroke-linejoin="miter" stroke-linecap="square" stroke-miterlimit="3"/></g><g id="Head"><g id="Face"><g id="Base head"><path d=" M 418.493 329.113 Q 411.145 354.198 411.651 359.773 Q 411.398 359.266 450.673 373.963 Q 456.755 357.999 463.596 352.171 Q 463.343 351.918 418.493 329.113 Z " fill="rgb(213,173,108)" vector-effect="non-scaling-stroke" stroke-width="0.3" stroke="rgb(0,0,0)" stroke-linejoin="miter" stroke-linecap="square" stroke-miterlimit="3"/><path d=" M 490.028 274.456 Q 498.26 282.937 498.943 303.516 Q 495.202 305.512 495.202 309.253 Q 494.952 323.722 502.436 332.453 Q 498.445 336.444 491.709 337.442 C 487.967 341.932 490.961 344.258 490.961 345.175 C 490.961 346.092 487.67 346.95 487.843 346.892 C 487.845 346.913 487.373 346.82 487.451 346.82 C 487.451 349.049 488.91 353.535 487.399 355.062 C 487.002 355.572 483.897 355.943 483.107 356.732 C 482.318 357.522 481.164 368.292 479.735 369.871 C 478.307 371.451 438.425 360.991 435.082 357.648 Q 431.74 354.305 419.866 333.95 L 411.883 321.477 L 424.106 271.336 L 490.028 274.456 Z " fill="rgb(213,173,108)" vector-effect="non-scaling-stroke" stroke-width="0.3" stroke="rgb(0,0,0)" stroke-linejoin="miter" stroke-linecap="square" stroke-miterlimit="3"/><path d=" M 412.241 353.093 C 396.96 318.816 402.369 283.801 405.254 278.468 C 408.139 273.136 412.155 268.605 411.384 266.846 Q 410.614 265.087 412.132 259.113 Q 418.676 264.578 418.369 259.612 C 418.061 254.645 433.336 241.9 435.831 241.9 Q 431.091 248.635 437.577 251.38 Q 440.741 251.474 440.571 247.638 C 440.571 247.139 449.551 249.134 449.821 249.023 Q 454.54 244.395 472.948 245.306 Q 465.516 246.942 465.516 250.631 C 465.516 254.321 483.3 250.703 486.221 253.625 Q 489.142 256.546 509.29 256.044 Q 508.173 261.108 500.204 262.651 Q 509.421 264.601 507.674 280.566 Q 504.681 271.835 499.791 270.911 L 496.488 286.191 Q 492.807 275.867 488.641 275.867 Q 484.475 275.867 466.34 274.215 Q 463.271 274.33 457.255 281.235 Q 464.019 284.557 464.275 298.167 L 452.712 307.666 L 451.06 332.031 Q 447.306 306.26 441.562 302.71 C 430.842 295.284 423.15 309.99 422.639 313.66 C 422.129 317.33 420.974 335.576 423.109 338.689 C 425.243 341.803 421.718 349.397 420.087 351.028 Q 418.456 352.659 412.241 353.093 Z " fill="rgb(23,23,23)"/><path d=" M 487.451 346.859 C 487.792 346.702 479.291 346.28 473.686 344.242" fill="none" vector-effect="non-scaling-stroke" stroke-width="0.4" stroke="rgb(0,0,0)" stroke-linejoin="miter" stroke-linecap="square" stroke-miterlimit="3"/><path d=" M 470.834 313.552 C 470.834 313.552 477.801 305.333 481.521 307.064 C 481.482 306.88 486.835 313.42 482.151 322.55 C 476.441 321.684 470.834 313.552 470.834 313.552 Z " fill="rgb(255,255,255)" vector-effect="non-scaling-stroke" stroke-width="0.2" stroke="rgb(0,0,0)" stroke-linejoin="miter" stroke-linecap="square" stroke-miterlimit="3"/></g><g id="Eye"><g id="Eye"><g id="Group"><path d=" M 470.834 313.695 C 470.834 313.695 477.801 305.476 481.521 307.206 C 481.482 307.023 486.835 313.563 482.151 322.692 C 476.441 321.827 470.834 313.695 470.834 313.695 Z " fill="rgb(255,255,255)" vector-effect="non-scaling-stroke" stroke-width="0.2" stroke="rgb(0,0,0)" stroke-linejoin="miter" stroke-linecap="square" stroke-miterlimit="3"/><path d=" M 477.346 315.027 C 477.346 311.039 478.882 307.802 480.773 307.802 C 482.665 307.802 484.2 311.039 484.2 315.027 C 484.2 319.014 482.665 322.252 480.773 322.252 C 478.882 322.252 477.346 319.014 477.346 315.027 Z " fill="rgb(51,31,0)"/></g><g id="Group"><path d=" M 481.248 314.824 C 481.248 312.001 481.896 309.71 482.694 309.71 C 483.492 309.71 484.139 312.001 484.139 314.824 C 484.139 317.647 483.492 319.939 482.694 319.939 C 481.896 319.939 481.248 317.647 481.248 314.824 Z " fill="rgb(23,23,23)"/><path d=" M 482.572 311.415 C 482.572 310.817 482.722 310.331 482.908 310.331 C 483.093 310.331 483.243 310.817 483.243 311.415 C 483.243 312.014 483.093 312.499 482.908 312.499 C 482.722 312.499 482.572 312.014 482.572 311.415 Z " fill="rgb(235,235,235)"/></g></g><path d=" M 475.159 309.492 Q 478.777 305.979 479.872 305.979 Q 480.966 305.979 483.312 307.804 Q 480.995 307.037 479.796 307.037 Q 478.597 307.037 475.159 309.492 Z " fill="rgb(23,23,23)"/></g><path d=" M 467.259 310.783 L 483.648 301.092 L 488.778 327.742 L 466.974 327.885 L 467.259 310.783 Z  M 470.834 313.695 C 470.834 313.695 477.801 305.476 481.521 307.206 C 481.482 307.023 486.835 313.563 482.151 322.692 C 476.441 321.827 470.834 313.695 470.834 313.695 Z " fill-rule="evenodd" fill="rgb(213,173,108)"/><g id="Cejas"><path d=" M 474.147 298.925 Q 476.456 298.239 483.421 294.862 Q 490.789 300.517 492.384 300.517 Q 493.979 300.517 489.891 302.91 C 486.8 301.614 482.289 297.615 480.823 297.615 C 479.357 297.615 479.033 297.828 474.147 298.925 Z " fill="rgb(23,23,23)" vector-effect="non-scaling-stroke" stroke-width="0.2" stroke="rgb(0,0,0)" stroke-linejoin="miter" stroke-linecap="square" stroke-miterlimit="3"/><path d=" M 482.565 304.172 L 484.836 305.599 L 487.106 307.739" fill="none" vector-effect="non-scaling-stroke" stroke-width="0.3" stroke="rgb(0,0,0)" stroke-linejoin="miter" stroke-linecap="square" stroke-miterlimit="3"/></g></g><g id="Ear"><path d=" M 443.25 304.805 C 434.412 294.796 427.523 305.974 428.823 311.823 C 430.974 318.41 431.812 324.171 437.142 325.601 C 438.773 326.491 440.362 328.844 442.081 329.76 C 446.11 332.1 447.363 325.034 447.02 324.691" fill="none" vector-effect="non-scaling-stroke" stroke-width="0.3" stroke="rgb(0,0,0)" stroke-linejoin="miter" stroke-linecap="square" stroke-miterlimit="3"/><defs><filter id="vaZX1MAue7ZM9nX5MUl9pSACzXTXt2gv" x="-200%" y="-200%" width="400%" height="400%"><feGaussianBlur xmlns="http://www.w3.org/2000/svg" stdDeviation="0"/></filter></defs><g filter="url(#vaZX1MAue7ZM9nX5MUl9pSACzXTXt2gv)"><path d=" M 441.042 308.428 Q 441.688 305.583 438.78 303.373 Q 436.675 302.441 431.862 305.901 Q 430.54 310.97 432.485 316.057 Q 433.608 319.349 437.45 322.664 Q 440.042 323.838 439.445 321.599 Q 434.206 317.928 434.057 317.105 C 434.131 317.105 432.411 313.588 434.257 310.424 Q 435.478 308.725 441.042 308.428 Z " fill="rgb(0,0,0)" fill-opacity="0.19"/></g><defs><filter id="gkO05MzOXljdDm7PvBSggVWRSJZk3biD" x="-200%" y="-200%" width="400%" height="400%"><feGaussianBlur xmlns="http://www.w3.org/2000/svg" stdDeviation="0"/></filter></defs><g filter="url(#gkO05MzOXljdDm7PvBSggVWRSJZk3biD)"><path d=" M 441.314 309.174 Q 435.426 311.283 435.403 314.411 Q 435.403 316.357 437.498 318.676 Q 439.443 318.975 440.491 319.723 Q 442.586 319.349 444.232 321.519 C 445.129 321.893 445.648 321.386 445.354 321.07 Q 444.381 320.023 444.082 317.628 Q 442.286 319.05 443.109 314.86 Q 441.089 314.187 441.314 309.174 Z " fill="rgb(0,0,0)" fill-opacity="0.29"/></g></g></g><path d=" M 414.019 357.059 C 442.341 374.254 477.501 371.286 478.149 376.652 Q 466.375 380.592 461.696 388.478 Q 476.701 431.694 457.069 456.345 Q 433.739 513.947 430.847 541.694 Q 430.434 541.854 357.838 545.807 Q 341.572 418.842 404.626 361.742 Q 405.181 353.013 412.709 353.092 Q 410.527 356.063 414.019 357.059 Z " fill="rgb(5,5,70)" vector-effect="non-scaling-stroke" stroke-width="0.2" stroke="rgb(0,0,0)" stroke-linejoin="miter" stroke-linecap="square" stroke-miterlimit="3"/><g id="Right arm"><g id="Right hand"><g id="Group"><path d=" M 554.264 477.569 L 563.043 477.081 C 566.132 476.918 572.636 478.544 570.197 480.983 Q 567.758 483.422 556.052 485.21 L 545.322 486.186 L 554.264 477.569 Z " fill="rgb(172,140,87)" vector-effect="non-scaling-stroke" stroke-width="0.2" stroke="rgb(0,0,0)" stroke-linejoin="miter" stroke-linecap="square" stroke-miterlimit="3"/><path d=" M 568.246 462.273 L 589.22 472.191 Q 589.87 476.256 584.342 475.443 Q 578.814 474.63 567.921 468.614 L 568.246 462.273 Z " fill="rgb(195,158,99)" vector-effect="non-scaling-stroke" stroke-width="0.2" stroke="rgb(0,0,0)" stroke-linejoin="miter" stroke-linecap="square" stroke-miterlimit="3"/><path d=" M 573.334 467.365 C 569.38 463.196 565.891 459.845 565.26 459.845 C 563.639 459.845 546.021 469.296 544.293 469.296 Q 542.565 469.296 530.254 472.617 L 533.093 488.465 Q 540.884 489.079 542.554 488.465 C 544.223 487.85 549.571 485.119 550.359 483.734 C 550.865 482.845 556.995 477.69 561.547 474.11 L 566.729 471.889 L 567.684 471.48 C 570.978 474.249 579.525 482.652 580.583 482.997 C 581.85 483.411 584.884 484.497 586.137 483.244 C 586.549 482.833 584.616 480.172 581.773 476.78 C 584.863 477.412 587.801 476.533 587.801 475.328 Q 587.801 474.059 573.334 467.365 Z " fill="rgb(213,173,108)" vector-effect="non-scaling-stroke" stroke-width="0.2" stroke="rgb(0,0,0)" stroke-linejoin="miter" stroke-linecap="square" stroke-miterlimit="3"/></g><path d=" M 581.945 476.778 C 577.389 475.726 570.565 471.524 566.747 471.817" fill="none" vector-effect="non-scaling-stroke" stroke-width="0.1" stroke="rgb(0,0,0)" stroke-linejoin="miter" stroke-linecap="square" stroke-miterlimit="3"/><path d=" M 557.472 469.483 C 559.646 466.766 566.633 465.342 566.873 465.204 C 566.884 465.091 571.727 466.415 573.368 467.437" fill="none" vector-effect="non-scaling-stroke" stroke-width="0.1" stroke="rgb(0,0,0)" stroke-linejoin="miter" stroke-linecap="square" stroke-miterlimit="3"/></g><path d=" M 440.366 508.954 L 440.358 508.961 Q 407.448 455.108 407.448 431.772 C 407.448 408.436 424.801 385.099 440.957 404.247 Q 456.976 423.232 468.288 482.219 L 468.482 482.035 L 531.31 470.666 L 535.499 492.207 Q 463.143 517.879 451.727 514.945 Q 443.709 512.884 440.366 508.954 Z " fill="rgb(5,5,70)" vector-effect="non-scaling-stroke" stroke-width="0.2" stroke="rgb(0,0,0)" stroke-linejoin="miter" stroke-linecap="square" stroke-miterlimit="3"/></g><path d=" M 357.489 543.815 C 348.079 561.901 353.649 586.549 358.04 593.405 C 362.431 600.26 370.497 608.946 376.424 609.474 Q 376.494 609.567 492.438 602.465 Q 490.509 636.282 495.458 643.285 Q 500.407 650.288 502.599 667.119 L 503.864 691.853 L 538.496 693.071 L 540.183 616.536 Q 540.183 571.257 529.651 554.066 Q 493.226 540.99 431.28 549.612 L 430.983 541.715 L 357.489 543.815 Z " fill="rgb(30,30,30)" vector-effect="non-scaling-stroke" stroke-width="0.2" stroke="rgb(0,0,0)" stroke-linejoin="miter" stroke-linecap="square" stroke-miterlimit="3"/></g></g><g id="Shoes"><rect x="502.789" y="692.895" width="65.83" height="31.479" transform="matrix(1,0,0,1,0,0)" fill="rgb(93,93,93)"/><g id="Group"><path d=" M 533.328 672.292 C 534.685 671.36 536.297 670.879 537.937 670.879 C 539.689 670.879 541.385 671.444 542.799 672.462 L 547.492 675.911 L 545.174 678.936 C 544.886 679.31 544.761 679.783 544.824 680.251 C 544.888 680.718 545.136 681.14 545.513 681.424 C 546.289 682.014 547.394 681.876 548.001 681.113 L 550.375 678.031 L 552.693 679.727 L 550.149 683.035 C 549.862 683.409 549.736 683.882 549.8 684.35 C 549.864 684.817 550.112 685.239 550.488 685.523 C 551.264 686.113 552.369 685.975 552.976 685.212 L 555.549 681.848 L 558.206 683.798 L 555.662 687.134 C 555.375 687.508 555.249 687.982 555.313 688.449 C 555.376 688.916 555.624 689.338 556.001 689.622 C 556.777 690.212 557.882 690.074 558.489 689.311 L 561.09 685.919 L 563.408 687.615 L 560.779 691.064 C 560.491 691.438 560.366 691.911 560.43 692.378 C 560.493 692.846 560.741 693.268 561.118 693.551 C 561.894 694.142 562.999 694.003 563.606 693.241 L 566.291 689.735 L 568.949 691.686 L 566.546 694.824 C 566.259 695.198 566.133 695.671 566.197 696.138 C 566.26 696.605 566.508 697.028 566.885 697.311 C 567.661 697.901 568.766 697.763 569.373 697 L 571.832 693.806 L 574.49 695.757 L 572.002 699.008 C 571.715 699.382 571.589 699.855 571.653 700.322 C 571.716 700.789 571.964 701.212 572.341 701.495 C 573.117 702.085 574.222 701.947 574.829 701.184 L 577.373 697.877 L 584.158 702.852 C 584.469 703.078 584.808 703.305 585.147 703.503 L 576.553 703.446 C 573.28 703.45 570.092 702.41 567.45 700.478 L 532.198 673.225 C 532.537 672.914 532.876 672.603 533.244 672.349 L 533.328 672.292 L 533.328 672.292 Z  M 611.778 728.521 L 508.055 728.521 C 505.567 728.521 503.475 726.91 502.74 724.677 L 617.121 724.677 C 616.338 726.963 614.195 728.505 611.778 728.521 L 611.778 728.521 Z  M 518.6 698.781 C 514.444 698.781 511.08 702.146 511.08 706.301 C 511.08 710.457 514.444 713.821 518.6 713.821 C 522.756 713.821 526.12 710.457 526.12 706.301 C 526.12 702.146 522.756 698.781 518.6 698.781 Z " fill="rgb(211,99,42)"/><path d=" M 601.572 706.81 L 596.682 706.81 C 596.173 706.81 595.664 706.782 595.183 706.754 C 594.957 706.838 594.731 706.923 594.476 706.923 L 576.384 706.81 C 572.346 706.814 568.413 705.527 565.16 703.135 L 530.134 676.109 L 527.872 680.01 C 522.794 688.701 513.089 693.604 503.08 692.534 L 502.91 692.505 C 502.684 692.505 502.458 692.647 502.458 692.901 L 502.458 721.171 L 617.347 721.171 C 616.555 713.114 609.799 706.81 601.572 706.81 L 601.572 706.81 Z  M 518.6 717.355 C 512.494 717.355 507.546 712.379 507.546 706.301 C 507.546 700.195 512.522 695.248 518.6 695.248 C 522.549 695.248 526.198 697.354 528.173 700.774 C 530.147 704.194 530.147 708.408 528.173 711.828 C 526.198 715.248 522.549 717.355 518.6 717.355 L 518.6 717.355 Z " fill="rgb(60,53,51)"/><path d=" M 596.682 706.81 C 596.173 706.81 595.664 706.782 595.183 706.754 C 594.957 706.838 594.731 706.923 594.476 706.923 L 576.384 706.81 C 572.346 706.814 568.413 705.527 565.16 703.135 L 559.62 698.838 L 559.62 721.115 L 617.347 721.115 C 616.557 713.007 609.747 706.82 601.6 706.81 L 596.682 706.81 L 596.682 706.81 Z " fill="rgb(36,29,27)"/><path d=" M 559.591 728.521 L 611.778 728.521 C 614.265 728.521 616.357 726.91 617.092 724.677 L 559.591 724.677 L 559.591 728.521 Z  M 577.175 697.679 L 574.631 700.986 C 574.293 701.423 573.769 701.674 573.217 701.665 C 572.546 701.656 571.936 701.272 571.638 700.67 C 571.34 700.068 571.404 699.349 571.804 698.81 L 574.292 695.559 L 571.634 693.608 L 569.175 696.803 C 568.837 697.239 568.313 697.49 567.761 697.481 C 567.09 697.472 566.48 697.088 566.181 696.486 C 565.883 695.884 565.948 695.165 566.348 694.626 L 568.751 691.488 L 566.093 689.537 L 563.408 693.043 C 563.07 693.479 562.546 693.73 561.994 693.721 C 561.323 693.712 560.712 693.328 560.414 692.726 C 560.116 692.124 560.181 691.405 560.581 690.866 L 563.21 687.417 L 560.892 685.721 L 559.45 687.587 L 559.45 694.258 L 567.139 700.195 C 569.781 702.128 572.969 703.168 576.242 703.163 L 584.836 703.22 L 583.847 702.57 L 577.175 697.679 L 577.175 697.679 Z  M 518.6 698.781 C 518.43 698.781 518.289 698.781 518.119 698.81 L 518.119 713.821 C 518.289 713.821 518.43 713.849 518.6 713.849 C 522.756 713.849 526.12 710.485 526.12 706.33 C 526.12 702.174 522.756 698.781 518.6 698.781 L 518.6 698.781 Z " fill="rgb(175,82,31)"/></g></g><g id="Keyboard"><rect x="658.166" y="484.279" width="1.445" height="10.663" transform="matrix(0.961,-0.275,0.275,0.961,-109.214,200.005)" fill="rgb(93,93,93)"/><rect x="549.807" y="482.199" width="122.118" height="7.561" transform="matrix(0.997,-0.072,0.072,0.997,-33.405,45.244)" fill="rgb(93,93,93)"/></g><rect x="528.69" y="494.243" width="295.33" height="236.4" transform="matrix(1,0,0,1,0,0)" fill="rgb(94,64,0)"/></g></g></svg>
