<?xml version="1.0" standalone="no"?>
<!-- Generator: Gravit.io -->
<svg class="meCoding" xmlns="http://www.w3.org/2000/svg" xmlns:xlink="http://www.w3.org/1999/xlink" style="isolation:isolate" viewBox="0 0 1024 768">
    <defs>
        <clipPath id="_clipPath_xZnr8zalkFEHbF4IuZjvv736p7rkLPfY">
            <rect width="1024" height="768" />
        </clipPath>
    </defs>
    <g clip-path="url(#_clipPath_xZnr8zalkFEHbF4IuZjvv736p7rkLPfY)">
        <g id="Draw">
            <defs>
                <filter id="qaX06xkHIKl1YF5FQvQt4ZvI3YaojfjS" x="-200%" y="-200%" width="400%" height="400%">
                    <feGaussianBlur xmlns="http://www.w3.org/2000/svg" stdDeviation="5.796372234832688" />
                </filter>
            </defs>
            <g filter="url(#qaX06xkHIKl1YF5FQvQt4ZvI3YaojfjS)">
                <path d=" M 199.98 724.204 C 199.98 715.954 294.144 709.257 410.129 709.257 C 526.113 709.257 620.277 715.954 620.277 724.204 C 620.277 732.454 526.113 739.152 410.129 739.152 C 294.144 739.152 199.98 732.454 199.98 724.204 Z " fill="rgb(23,23,23)"
                />
            </g>
            <g id="Chair purple">
                <g id="Group">
                    <path d=" M 322.59 471.44 C 312.213 464.3 304.715 443.929 304.715 419.94 C 304.715 395.95 312.213 375.579 322.59 368.439 C 312.213 361.299 304.715 340.928 304.715 316.939 C 304.715 287.019 316.378 262.728 330.745 262.728 C 345.111 262.728 356.775 287.019 356.775 316.939 C 356.775 340.928 349.276 361.299 338.899 368.439 C 349.276 375.579 356.775 395.95 356.775 419.94 C 356.775 443.929 349.276 464.3 338.899 471.44 C 349.276 478.58 356.775 498.951 356.775 522.941 C 356.775 552.861 345.111 577.152 330.745 577.152 C 316.378 577.152 304.715 552.861 304.715 522.941 C 304.715 498.951 312.213 478.58 322.59 471.44 Z "
                        fill="rgb(153,0,255)" />
                    <rect x="292.822" y="262.728" width="37.922" height="314.424" transform="matrix(1,0,0,1,0,0)" fill="rgb(46,46,46)" />
                    <rect x="308.474" y="577.152" width="6.62" height="56.757" transform="matrix(1,0,0,1,0,0)" fill="rgb(23,23,23)" />
                    <path d=" M 321.003 611.251 C 321.003 598.745 363.657 588.592 416.196 588.592 C 468.735 588.592 511.39 598.745 511.39 611.251 C 511.39 623.756 468.735 633.909 416.196 633.909 C 363.657 633.909 321.003 623.756 321.003 611.251 Z " fill="rgb(153,0,255)"
                    />
                    <rect x="307.248" y="611.251" width="204.142" height="35.271" transform="matrix(1,0,0,1,0,0)" fill="rgb(46,46,46)" />
                    <g id="Group">
                        <path d=" M 406.452 692.147 L 406.452 646.522 L 413.072 646.522 L 413.072 692.593 L 505.096 710.887 L 503.92 716.255 L 408.641 697.314 L 313.361 716.255 L 312.185 710.887 L 406.452 692.147 Z " fill="rgb(23,23,23)" />
                        <path d=" M 307.467 719.045 C 307.467 713.824 311.917 709.586 317.397 709.586 C 322.877 709.586 327.327 713.824 327.327 719.045 C 327.327 724.266 322.877 728.505 317.397 728.505 C 311.917 728.505 307.467 724.266 307.467 719.045 Z "
                            fill="rgb(70,70,70)" vector-effect="non-scaling-stroke" stroke-width="0.3" stroke="rgb(23,23,23)" stroke-linejoin="miter" stroke-linecap="square" stroke-miterlimit="3" />
                        <path d=" M 490.391 719.045 C 490.391 713.824 494.841 709.586 500.321 709.586 C 505.801 709.586 510.25 713.824 510.25 719.045 C 510.25 724.266 505.801 728.505 500.321 728.505 C 494.841 728.505 490.391 724.266 490.391 719.045 Z "
                            fill="rgb(70,70,70)" vector-effect="non-scaling-stroke" stroke-width="0.3" stroke="rgb(23,23,23)" stroke-linejoin="miter" stroke-linecap="square" stroke-miterlimit="3" />
                    </g>
                </g>
            </g>
            <rect x="767.101" y="308.321" width="17.3" height="147.178" transform="matrix(1,0,0,1,0,0)" fill="rgb(93,93,93)" />
            <path d=" M 782.202 483.106 L 782.202 454.297 L 777.682 454.297 L 777.682 483.207 L 768.189 488.004 L 756.247 494.038 L 778.858 493.851 L 801.469 493.663 L 790.8 487.817 L 782.202 483.106 Z " fill="rgb(235,235,235)" vector-effect="non-scaling-stroke"
                stroke-width="1" stroke="rgb(93,93,93)" stroke-linejoin="miter" stroke-linecap="square" stroke-miterlimit="3" />
            <g id="Me Coding">
                <g id="Me Coding">
                    <path d=" M 450.086 364.02 L 473.236 369.679 L 449.057 378.425 L 450.086 364.02 Z " fill="rgb(4,4,47)" vector-effect="non-scaling-stroke" stroke-width="0.2" stroke="rgb(0,0,0)" stroke-linejoin="miter" stroke-linecap="square" stroke-miterlimit="3"
                    />
                    <g id="Left arm" class="left-arm">
                        <g id="Left hand" class="left-hand">
                            <g id="Group">
                                <path d=" M 561.395 445.714 L 582.368 455.632 Q 583.019 459.697 577.491 458.884 Q 571.963 458.071 561.07 452.055 L 561.395 445.714 Z " fill="rgb(153,124,78)" vector-effect="non-scaling-stroke" stroke-width="0.2" stroke="rgb(0,0,0)"
                                    stroke-linejoin="miter" stroke-linecap="square" stroke-miterlimit="3" />
                                <path d=" M 540.62 469.431 C 538.803 470.516 536.655 471.555 535.702 471.906 Q 534.033 472.52 526.241 471.906 L 523.403 456.059 Q 535.713 452.737 537.442 452.737 C 539.17 452.737 556.787 443.286 558.409 443.286 C 559.04 443.286 562.529 446.638 566.483 450.807 Q 580.95 457.5 580.95 458.769 C 580.95 459.974 578.012 460.853 574.922 460.221 C 577.765 463.613 579.698 466.274 579.286 466.685 C 578.033 467.938 574.999 466.852 573.732 466.438 C 572.674 466.093 564.127 457.69 560.833 454.921 L 559.877 455.331 L 554.696 457.551 C 553.409 458.563 551.997 459.7 550.621 460.832 L 556.192 460.522 C 559.281 460.359 565.785 461.985 563.346 464.424 Q 560.907 466.863 549.201 468.651 L 540.62 469.431 Z "
                                    fill="rgb(183,150,96)" vector-effect="non-scaling-stroke" stroke-width="0.2" stroke="rgb(0,0,0)" stroke-linejoin="miter" stroke-linecap="square" stroke-miterlimit="3" />
                              <path d=" M 575.094 460.219 C 570.538 459.167 563.714 454.965 559.896 455.258" fill="none" vector-effect="non-scaling-stroke" stroke-width="0.1" stroke="rgb(0,0,0)" stroke-linejoin="miter" stroke-linecap="square" stroke-miterlimit="3"
                              />
                            </g>
                            <path d=" M 550.621 452.925 C 552.795 450.207 559.782 448.783 560.022 448.645 C 560.033 448.532 564.876 449.856 566.517 450.878" fill="none" vector-effect="non-scaling-stroke" stroke-width="0.1" stroke="rgb(0,0,0)" stroke-linejoin="miter"
                                stroke-linecap="square" stroke-miterlimit="3" />
                        </g>
                        <path d=" M 434.204 492.429 L 434.196 492.437 Q 401.286 438.584 401.286 415.247 C 401.286 391.911 418.639 368.575 434.795 387.722 Q 450.814 406.708 462.126 465.695 L 462.32 465.51 L 525.148 454.141 L 529.337 475.683 Q 456.981 501.354 445.565 498.421 Q 437.548 496.36 434.204 492.429 Z "
                            fill="rgb(3,3,53)" vector-effect="non-scaling-stroke" stroke-width="0.2" stroke="rgb(0,0,0)" stroke-linejoin="miter" stroke-linecap="square" stroke-miterlimit="3" />
                    </g>
                    <g id="Head">
                        <g id="Face">
                            <g id="Base head">
                                <path d=" M 418.493 327.113 Q 411.145 352.198 411.651 357.773 Q 411.398 357.266 450.673 371.963 Q 456.755 355.999 463.596 350.171 Q 463.343 349.918 418.493 327.113 Z " fill="rgb(213,173,108)" vector-effect="non-scaling-stroke"
                                    stroke-width="0.3" stroke="rgb(0,0,0)" stroke-linejoin="miter" stroke-linecap="square" stroke-miterlimit="3" />
                                <path d=" M 490.028 272.456 Q 498.26 280.937 498.943 301.516 Q 495.202 303.512 495.202 307.253 Q 494.952 321.722 502.436 330.453 Q 498.445 334.444 491.709 335.442 C 487.967 339.932 490.961 342.258 490.961 343.175 C 490.961 344.092 487.67 344.95 487.843 344.892 C 487.845 344.913 487.373 344.82 487.451 344.82 C 487.451 347.049 488.91 351.535 487.399 353.062 C 487.002 353.572 483.897 353.943 483.107 354.732 C 482.318 355.522 481.164 366.292 479.735 367.871 C 478.307 369.451 438.425 358.991 435.082 355.648 Q 431.74 352.305 419.866 331.95 L 411.883 319.477 L 424.106 269.336 L 490.028 272.456 Z "
                                    fill="rgb(213,173,108)" vector-effect="non-scaling-stroke" stroke-width="0.3" stroke="rgb(0,0,0)" stroke-linejoin="miter" stroke-linecap="square" stroke-miterlimit="3" />
                                <path d=" M 412.241 351.093 C 396.96 316.816 402.369 281.801 405.254 276.468 C 408.139 271.136 412.155 266.605 411.384 264.846 Q 410.614 263.087 412.132 257.113 Q 418.676 262.578 418.369 257.612 C 418.061 252.645 433.336 239.9 435.831 239.9 Q 431.091 246.635 437.577 249.38 Q 440.741 249.474 440.571 245.638 C 440.571 245.139 449.551 247.134 449.821 247.023 Q 454.54 242.395 472.948 243.306 Q 465.516 244.942 465.516 248.631 C 465.516 252.321 483.3 248.703 486.221 251.625 Q 489.142 254.546 509.29 254.044 Q 508.173 259.108 500.204 260.651 Q 509.421 262.601 507.674 278.566 Q 504.681 269.835 499.791 268.911 L 496.488 284.191 Q 492.807 273.867 488.641 273.867 Q 484.475 273.867 466.34 272.215 Q 463.271 272.33 457.255 279.235 Q 464.019 282.557 464.275 296.167 L 452.712 305.666 L 451.06 330.031 Q 447.306 304.26 441.562 300.71 C 430.842 293.284 423.15 307.99 422.639 311.66 C 422.129 315.33 420.974 333.576 423.109 336.689 C 425.243 339.803 421.718 347.397 420.087 349.028 Q 418.456 350.659 412.241 351.093 Z "
                                    fill="rgb(23,23,23)" />
                                <path d=" M 487.451 344.859 C 487.792 344.702 479.291 344.28 473.686 342.242" fill="none" vector-effect="non-scaling-stroke" stroke-width="0.4" stroke="rgb(0,0,0)" stroke-linejoin="miter" stroke-linecap="square" stroke-miterlimit="3"
                                />
                                <path d=" M 470.834 311.552 C 470.834 311.552 477.801 303.333 481.521 305.064 C 481.482 304.88 486.835 311.42 482.151 320.55 C 476.441 319.684 470.834 311.552 470.834 311.552 Z " fill="rgb(255,255,255)" vector-effect="non-scaling-stroke"
                                    stroke-width="0.2" stroke="rgb(0,0,0)" stroke-linejoin="miter" stroke-linecap="square" stroke-miterlimit="3" />
                            </g>
                            <g id="Eye" class="eye">
                                  <path d=" M 470.834 311.695 C 470.834 311.695 477.801 303.476 481.521 305.206 C 481.482 305.023 486.835 311.563 482.151 320.692 C 476.441 319.827 470.834 311.695 470.834 311.695 Z " fill="rgb(255,255,255)" vector-effect="non-scaling-stroke"
                                      stroke-width="0.2" stroke="rgb(0,0,0)" stroke-linejoin="miter" stroke-linecap="square" stroke-miterlimit="3" />
                                  <path d=" M 477.346 313.027 C 477.346 309.039 478.882 305.802 480.773 305.802 C 482.665 305.802 484.2 309.039 484.2 313.027 C 484.2 317.014 482.665 320.252 480.773 320.252 C 478.882 320.252 477.346 317.014 477.346 313.027 Z "
                                      fill="rgb(51,31,0)" />
                            </g>
                            <path d=" M 467.259 308.783 L 483.648 299.092 L 488.778 325.742 L 466.974 325.885 L 467.259 308.783 Z  M 470.834 311.695 C 470.834 311.695 477.801 303.476 481.521 305.206 C 481.482 305.023 486.835 311.563 482.151 320.692 C 476.441 319.827 470.834 311.695 470.834 311.695 Z "
                                fill-rule="evenodd" fill="rgb(213,173,108)" />
                            <g id="Cejas">
                                <path d=" M 474.147 296.925 Q 476.456 296.239 483.421 292.862 Q 490.789 298.517 492.384 298.517 Q 493.979 298.517 489.891 300.91 C 486.8 299.614 482.289 295.615 480.823 295.615 C 479.357 295.615 479.033 295.828 474.147 296.925 Z "
                                    fill="rgb(23,23,23)" vector-effect="non-scaling-stroke" stroke-width="0.2" stroke="rgb(0,0,0)" stroke-linejoin="miter" stroke-linecap="square" stroke-miterlimit="3" />
                                <path d=" M 482.565 302.172 L 484.836 303.599 L 487.106 305.739" fill="none" vector-effect="non-scaling-stroke" stroke-width="0.3" stroke="rgb(0,0,0)" stroke-linejoin="miter" stroke-linecap="square" stroke-miterlimit="3"
                                />
                            </g>
                        </g>
                        <g id="Ear">
                            <path d=" M 443.25 302.805 C 434.412 292.796 427.523 303.974 428.823 309.823 C 430.974 316.41 431.812 322.171 437.142 323.601 C 438.773 324.491 440.362 326.844 442.081 327.76 C 446.11 330.1 447.363 323.034 447.02 322.691" fill="none"
                                vector-effect="non-scaling-stroke" stroke-width="0.3" stroke="rgb(0,0,0)" stroke-linejoin="miter" stroke-linecap="square" stroke-miterlimit="3" />
                            <defs>
                                <filter id="5uMYv4MOVSU1JUJMAPqAZjfJeXUEdJcS" x="-200%" y="-200%" width="400%" height="400%">
                                    <feGaussianBlur xmlns="http://www.w3.org/2000/svg" stdDeviation="0" />
                                </filter>
                            </defs>
                            <g filter="url(#5uMYv4MOVSU1JUJMAPqAZjfJeXUEdJcS)">
                                <path d=" M 441.042 306.428 Q 441.688 303.583 438.78 301.373 Q 436.675 300.441 431.862 303.901 Q 430.54 308.97 432.485 314.057 Q 433.608 317.349 437.45 320.664 Q 440.042 321.838 439.445 319.599 Q 434.206 315.928 434.057 315.105 C 434.131 315.105 432.411 311.588 434.257 308.424 Q 435.478 306.725 441.042 306.428 Z "
                                    fill="rgb(0,0,0)" fill-opacity="0.19" />
                            </g>
                            <defs>
                                <filter id="7A5p5sar9r7n8ZyGAOMDbe3Gaepf5NZx" x="-200%" y="-200%" width="400%" height="400%">
                                    <feGaussianBlur xmlns="http://www.w3.org/2000/svg" stdDeviation="0" />
                                </filter>
                            </defs>
                            <g filter="url(#7A5p5sar9r7n8ZyGAOMDbe3Gaepf5NZx)">
                                <path d=" M 441.314 307.174 Q 435.426 309.283 435.403 312.411 Q 435.403 314.357 437.498 316.676 Q 439.443 316.975 440.491 317.723 Q 442.586 317.349 444.232 319.519 C 445.129 319.893 445.648 319.386 445.354 319.07 Q 444.381 318.023 444.082 315.628 Q 442.286 317.05 443.109 312.86 Q 441.089 312.187 441.314 307.174 Z "
                                    fill="rgb(0,0,0)" fill-opacity="0.29" />
                            </g>
                        </g>
                    </g>
                    <path d=" M 414.019 355.059 C 442.341 372.254 477.501 369.286 478.149 374.652 Q 466.375 378.592 461.696 386.478 Q 468.452 428.304 457.069 454.345 Q 433.739 511.947 430.847 539.694 Q 430.434 539.854 357.838 543.807 Q 341.572 416.842 404.626 359.742 Q 405.181 351.013 412.709 351.092 Q 410.527 354.063 414.019 355.059 Z "
                        fill="rgb(5,5,70)" vector-effect="non-scaling-stroke" stroke-width="0.2" stroke="rgb(0,0,0)" stroke-linejoin="miter" stroke-linecap="square" stroke-miterlimit="3" />
                    <g id="Right arm" class="right-arm">
                        <g id="Right hand" class="right-hand">
                            <g id="Group">
                                <path d=" M 554.264 475.569 L 563.043 475.081 C 566.132 474.918 572.636 476.544 570.197 478.983 Q 567.758 481.422 556.052 483.21 L 545.322 484.186 L 554.264 475.569 Z " fill="rgb(172,140,87)" vector-effect="non-scaling-stroke"
                                    stroke-width="0.2" stroke="rgb(0,0,0)" stroke-linejoin="miter" stroke-linecap="square" stroke-miterlimit="3" />
                                <path d=" M 568.246 460.273 L 589.22 470.191 Q 589.87 474.256 584.342 473.443 Q 578.814 472.63 567.921 466.614 L 568.246 460.273 Z " fill="rgb(195,158,99)" vector-effect="non-scaling-stroke" stroke-width="0.2" stroke="rgb(0,0,0)"
                                    stroke-linejoin="miter" stroke-linecap="square" stroke-miterlimit="3" />
                                <path d=" M 573.334 465.365 C 569.38 461.196 565.891 457.845 565.26 457.845 C 563.639 457.845 546.021 467.296 544.293 467.296 Q 542.565 467.296 530.254 470.617 L 533.093 486.465 Q 540.884 487.079 542.554 486.465 C 544.223 485.85 549.571 483.119 550.359 481.734 C 550.865 480.845 556.995 475.69 561.547 472.11 L 566.729 469.889 L 567.684 469.48 C 570.978 472.249 579.525 480.652 580.583 480.997 C 581.85 481.411 584.884 482.497 586.137 481.244 C 586.549 480.833 584.616 478.172 581.773 474.78 C 584.863 475.412 587.801 474.533 587.801 473.328 Q 587.801 472.059 573.334 465.365 Z "
                                    fill="rgb(213,173,108)" vector-effect="non-scaling-stroke" stroke-width="0.2" stroke="rgb(0,0,0)" stroke-linejoin="miter" stroke-linecap="square" stroke-miterlimit="3" />
                              <path d=" M 581.945 474.778 C 577.389 473.726 570.565 469.524 566.747 469.817" fill="none" vector-effect="non-scaling-stroke" stroke-width="0.1" stroke="rgb(0,0,0)" stroke-linejoin="miter" stroke-linecap="square" stroke-miterlimit="3"
                              />
                          </g>
                            <path d=" M 557.472 467.483 C 559.646 464.766 566.633 463.342 566.873 463.204 C 566.884 463.091 571.727 464.415 573.368 465.437" fill="none" vector-effect="non-scaling-stroke" stroke-width="0.1" stroke="rgb(0,0,0)" stroke-linejoin="miter"
                                stroke-linecap="square" stroke-miterlimit="3" />
                        </g>
                        <path d=" M 440.366 506.954 L 440.358 506.961 Q 407.448 453.108 407.448 429.772 C 407.448 406.436 424.801 383.099 440.957 402.247 Q 456.976 421.232 468.288 480.219 L 468.482 480.035 L 531.31 468.666 L 535.499 490.207 Q 463.143 515.879 451.727 512.945 Q 443.709 510.884 440.366 506.954 Z "
                            fill="rgb(5,5,70)" vector-effect="non-scaling-stroke" stroke-width="0.2" stroke="rgb(0,0,0)" stroke-linejoin="miter" stroke-linecap="square" stroke-miterlimit="3" />
                    </g>
                    <path d=" M 357.385 540.614 C 347.975 558.7 353.649 584.549 358.04 591.405 C 362.431 598.26 367.961 605.931 376.424 607.474 Q 412.293 614.013 492.438 600.465 Q 490.509 634.282 495.458 641.285 Q 500.407 648.288 502.599 665.119 L 503.864 689.853 L 538.496 691.071 L 540.183 614.536 Q 540.183 569.257 529.651 552.066 Q 493.226 538.99 431.28 547.612 L 430.983 539.715 L 357.385 540.614 Z "
                        fill="rgb(30,30,30)" vector-effect="non-scaling-stroke" stroke-width="0.2" stroke="rgb(0,0,0)" stroke-linejoin="miter" stroke-linecap="square" stroke-miterlimit="3" />
                </g>
            </g>
            <g id="Shoes">
                <rect x="502.789" y="692.895" width="65.83" height="31.479" transform="matrix(1,0,0,1,0,0)" fill="rgb(93,93,93)" />
                <g id="Group">
                    <path d=" M 533.328 672.292 C 534.685 671.36 536.297 670.879 537.937 670.879 C 539.689 670.879 541.385 671.444 542.799 672.462 L 547.492 675.911 L 545.174 678.936 C 544.886 679.31 544.761 679.783 544.824 680.251 C 544.888 680.718 545.136 681.14 545.513 681.424 C 546.289 682.014 547.394 681.876 548.001 681.113 L 550.375 678.031 L 552.693 679.727 L 550.149 683.035 C 549.862 683.409 549.736 683.882 549.8 684.35 C 549.864 684.817 550.112 685.239 550.488 685.523 C 551.264 686.113 552.369 685.975 552.976 685.212 L 555.549 681.848 L 558.206 683.798 L 555.662 687.134 C 555.375 687.508 555.249 687.982 555.313 688.449 C 555.376 688.916 555.624 689.338 556.001 689.622 C 556.777 690.212 557.882 690.074 558.489 689.311 L 561.09 685.919 L 563.408 687.615 L 560.779 691.064 C 560.491 691.438 560.366 691.911 560.43 692.378 C 560.493 692.846 560.741 693.268 561.118 693.551 C 561.894 694.142 562.999 694.003 563.606 693.241 L 566.291 689.735 L 568.949 691.686 L 566.546 694.824 C 566.259 695.198 566.133 695.671 566.197 696.138 C 566.26 696.605 566.508 697.028 566.885 697.311 C 567.661 697.901 568.766 697.763 569.373 697 L 571.832 693.806 L 574.49 695.757 L 572.002 699.008 C 571.715 699.382 571.589 699.855 571.653 700.322 C 571.716 700.789 571.964 701.212 572.341 701.495 C 573.117 702.085 574.222 701.947 574.829 701.184 L 577.373 697.877 L 584.158 702.852 C 584.469 703.078 584.808 703.305 585.147 703.503 L 576.553 703.446 C 573.28 703.45 570.092 702.41 567.45 700.478 L 532.198 673.225 C 532.537 672.914 532.876 672.603 533.244 672.349 L 533.328 672.292 L 533.328 672.292 Z  M 611.778 728.521 L 508.055 728.521 C 505.567 728.521 503.475 726.91 502.74 724.677 L 617.121 724.677 C 616.338 726.963 614.195 728.505 611.778 728.521 L 611.778 728.521 Z  M 518.6 698.781 C 514.444 698.781 511.08 702.146 511.08 706.301 C 511.08 710.457 514.444 713.821 518.6 713.821 C 522.756 713.821 526.12 710.457 526.12 706.301 C 526.12 702.146 522.756 698.781 518.6 698.781 Z "
                        fill="rgb(211,99,42)" />
                    <path d=" M 601.572 706.81 L 596.682 706.81 C 596.173 706.81 595.664 706.782 595.183 706.754 C 594.957 706.838 594.731 706.923 594.476 706.923 L 576.384 706.81 C 572.346 706.814 568.413 705.527 565.16 703.135 L 530.134 676.109 L 527.872 680.01 C 522.794 688.701 513.089 693.604 503.08 692.534 L 502.91 692.505 C 502.684 692.505 502.458 692.647 502.458 692.901 L 502.458 721.171 L 617.347 721.171 C 616.555 713.114 609.799 706.81 601.572 706.81 L 601.572 706.81 Z  M 518.6 717.355 C 512.494 717.355 507.546 712.379 507.546 706.301 C 507.546 700.195 512.522 695.248 518.6 695.248 C 522.549 695.248 526.198 697.354 528.173 700.774 C 530.147 704.194 530.147 708.408 528.173 711.828 C 526.198 715.248 522.549 717.355 518.6 717.355 L 518.6 717.355 Z "
                        fill="rgb(60,53,51)" />
                    <path d=" M 596.682 706.81 C 596.173 706.81 595.664 706.782 595.183 706.754 C 594.957 706.838 594.731 706.923 594.476 706.923 L 576.384 706.81 C 572.346 706.814 568.413 705.527 565.16 703.135 L 559.62 698.838 L 559.62 721.115 L 617.347 721.115 C 616.557 713.007 609.747 706.82 601.6 706.81 L 596.682 706.81 L 596.682 706.81 Z "
                        fill="rgb(36,29,27)" />
                    <path d=" M 559.591 728.521 L 611.778 728.521 C 614.265 728.521 616.357 726.91 617.092 724.677 L 559.591 724.677 L 559.591 728.521 Z  M 577.175 697.679 L 574.631 700.986 C 574.293 701.423 573.769 701.674 573.217 701.665 C 572.546 701.656 571.936 701.272 571.638 700.67 C 571.34 700.068 571.404 699.349 571.804 698.81 L 574.292 695.559 L 571.634 693.608 L 569.175 696.803 C 568.837 697.239 568.313 697.49 567.761 697.481 C 567.09 697.472 566.48 697.088 566.181 696.486 C 565.883 695.884 565.948 695.165 566.348 694.626 L 568.751 691.488 L 566.093 689.537 L 563.408 693.043 C 563.07 693.479 562.546 693.73 561.994 693.721 C 561.323 693.712 560.712 693.328 560.414 692.726 C 560.116 692.124 560.181 691.405 560.581 690.866 L 563.21 687.417 L 560.892 685.721 L 559.45 687.587 L 559.45 694.258 L 567.139 700.195 C 569.781 702.128 572.969 703.168 576.242 703.163 L 584.836 703.22 L 583.847 702.57 L 577.175 697.679 L 577.175 697.679 Z  M 518.6 698.781 C 518.43 698.781 518.289 698.781 518.119 698.81 L 518.119 713.821 C 518.289 713.821 518.43 713.849 518.6 713.849 C 522.756 713.849 526.12 710.485 526.12 706.33 C 526.12 702.174 522.756 698.781 518.6 698.781 L 518.6 698.781 Z "
                        fill="rgb(175,82,31)" />
                </g>
            </g>
            <g id="Keyboard">
                <rect x="658.166" y="484.279" width="1.445" height="10.663" transform="matrix(0.961,-0.275,0.275,0.961,-109.214,200.005)" fill="rgb(93,93,93)" />
                <rect x="549.807" y="482.199" width="122.118" height="7.561" transform="matrix(0.997,-0.072,0.072,0.997,-33.405,45.244)" fill="rgb(93,93,93)" />
            </g>
            <rect x="528.69" y="494.243" width="295.33" height="236.4" transform="matrix(1,0,0,1,0,0)" fill="rgb(94,64,0)" />
        </g>
    </g>
</svg>
