<?xml version="1.0" standalone="no"?><!-- Generator: Gravit.io --><svg xmlns="http://www.w3.org/2000/svg" xmlns:xlink="http://www.w3.org/1999/xlink" style="isolation:isolate" viewBox="0 0 1024 768"><defs><clipPath id="_clipPath_m5iAuSSRVmxDWsEd2MuYPoNPTnjhYDg0"><rect width="1024" height="768"/></clipPath></defs><g clip-path="url(#_clipPath_m5iAuSSRVmxDWsEd2MuYPoNPTnjhYDg0)"><g id="console"><g id="Group"><rect x="96.082" y="80.649" width="831.837" height="606.702" transform="matrix(1,0,0,1,0,0)" fill="rgb(0,0,0)" fill-opacity="0.9"/><path d=" M 900.191 103.984 L 900.191 664.016 L 123.809 664.016 L 123.809 103.984 L 900.191 103.984 Z  M 955.646 57.314 L 68.354 57.314 L 68.354 710.686 L 955.646 710.686 L 955.646 57.314 Z " fill="rgb(23,23,23)"/><rect x="68.354" y="57.314" width="887.293" height="93.339" transform="matrix(1,0,0,1,0,0)" fill="rgb(23,23,23)"/></g><path d=" M 107.772 101.434 C 110.467 91.376 120.82 85.399 130.878 88.094 C 140.935 90.789 146.913 101.142 144.218 111.199 C 141.523 121.257 131.17 127.234 121.112 124.54 C 111.055 121.845 105.077 111.491 107.772 101.434 Z " fill="rgb(255,0,0)"/><path d=" M 158.514 101.434 C 161.209 91.376 171.563 85.399 181.62 88.094 C 191.678 90.789 197.655 101.142 194.96 111.199 C 192.265 121.257 181.912 127.234 171.854 124.54 C 161.797 121.845 155.819 111.491 158.514 101.434 Z " fill="rgb(255,255,0)"/><path d=" M 212.076 101.434 C 214.77 91.376 225.124 85.399 235.181 88.094 C 245.239 90.789 251.216 101.142 248.522 111.199 C 245.827 121.257 235.473 127.234 225.416 124.54 C 215.358 121.845 209.381 111.491 212.076 101.434 Z " fill="rgb(0,255,0)"/><g transform="matrix(2.819,0,0,2.819,133.048,191.938)"><text transform="matrix(1,0,0,1,0,12.995)" style="font-family:&quot;Droid Sans Mono&quot;;font-weight:400;font-size:14px;font-style:normal;fill:#e6a500;stroke:none;">var </text><text transform="matrix(1,0,0,1,33.605,12.995)" style="font-family:&quot;Droid Sans Mono&quot;;font-weight:400;font-size:14px;font-style:normal;fill:#008ee6;stroke:none;">name = </text><text transform="matrix(1,0,0,1,92.415,12.995)" style="font-family:&quot;Droid Sans Mono&quot;;font-weight:400;font-size:14px;font-style:normal;fill:#2ee600;stroke:none;">'José Daniel'</text><text transform="matrix(1,0,0,1,201.633,12.995)" style="font-family:&quot;Droid Sans Mono&quot;;font-weight:400;font-size:14px;font-style:normal;fill:#0671b3;stroke:none;">;</text><text transform="matrix(1,0,0,1,0,45.589)" style="font-family:&quot;Droid Sans Mono&quot;;font-weight:400;font-size:14px;font-style:normal;fill:#e6a500;stroke:none;">function </text><text transform="matrix(1,0,0,1,75.612,45.589)" style="font-family:&quot;Droid Sans Mono&quot;;font-weight:400;font-size:14px;font-style:normal;fill:#e64100;stroke:none;">greet</text><text transform="matrix(1,0,0,1,117.619,45.589)" style="font-family:&quot;Droid Sans Mono&quot;;font-weight:400;font-size:14px;font-style:normal;fill:#008ee6;stroke:none;">(name) {    </text><text transform="matrix(1,0,0,1,16.803,78.183)" style="font-family:&quot;Droid Sans Mono&quot;;font-weight:400;font-size:14px;font-style:normal;fill:#0671b3;stroke:none;">console.</text><text transform="matrix(1,0,0,1,84.014,78.183)" style="font-family:&quot;Droid Sans Mono&quot;;font-weight:400;font-size:14px;font-style:normal;fill:#e6a500;stroke:none;">log(</text><text transform="matrix(1,0,0,1,117.619,78.183)" style="font-family:&quot;Droid Sans Mono&quot;;font-weight:400;font-size:14px;font-style:normal;fill:#00e6d3;stroke:none;">`Hello ${</text><text transform="matrix(1,0,0,1,193.231,78.183)" style="font-family:&quot;Droid Sans Mono&quot;;font-weight:400;font-size:14px;font-style:normal;fill:#008ee6;stroke:none;">name</text><text transform="matrix(1,0,0,1,226.837,78.183)" style="font-family:&quot;Droid Sans Mono&quot;;font-weight:400;font-size:14px;font-style:normal;fill:#00e6d3;stroke:none;">}!`</text><text transform="matrix(1,0,0,1,252.041,78.183)" style="font-family:&quot;Droid Sans Mono&quot;;font-weight:400;font-size:14px;font-style:normal;fill:#e6a500;stroke:none;">)</text><text transform="matrix(1,0,0,1,260.442,78.183)" style="font-family:&quot;Droid Sans Mono&quot;;font-weight:400;font-size:14px;font-style:normal;fill:#008ee6;stroke:none;">;</text><text transform="matrix(1,0,0,1,0,110.776)" style="font-family:&quot;Droid Sans Mono&quot;;font-weight:400;font-size:14px;font-style:normal;fill:#008ee6;stroke:none;">};</text><text transform="matrix(1,0,0,1,0,143.37)" style="font-family:&quot;Droid Sans Mono&quot;;font-weight:400;font-size:14px;font-style:normal;fill:#e64100;stroke:none;">greet</text><text transform="matrix(1,0,0,1,42.007,143.37)" style="font-family:&quot;Droid Sans Mono&quot;;font-weight:400;font-size:14px;font-style:normal;fill:#008ee6;stroke:none;">(name);</text></g></g></g></svg>
