<?xml version="1.0" standalone="no"?><!-- Generator: Gravit.io --><svg xmlns="http://www.w3.org/2000/svg" xmlns:xlink="http://www.w3.org/1999/xlink" style="isolation:isolate" viewBox="0 0 1024 768" ><defs><clipPath id="_clipPath_OAbPYli8tiyl8qy0T8gdU6BhiskGqN51"><rect width="1024" height="768"/></clipPath></defs><g clip-path="url(#_clipPath_OAbPYli8tiyl8qy0T8gdU6BhiskGqN51)"><path d="M 69.119 51.227 L 954.881 51.227 C 962.227 51.227 968.192 57.191 968.192 64.538 L 968.192 703.462 C 968.192 710.809 962.227 716.773 954.881 716.773 L 69.119 716.773 C 61.773 716.773 55.808 710.809 55.808 703.462 L 55.808 64.538 C 55.808 57.191 61.773 51.227 69.119 51.227 Z" style="stroke:none;fill:#171717;stroke-miterlimit:10;"/><path d="M 69.119 51.227 L 954.881 51.227 C 962.227 51.227 968.192 57.191 968.192 64.538 L 968.192 703.462 C 968.192 710.809 962.227 716.773 954.881 716.773 L 69.119 716.773 C 61.773 716.773 55.808 710.809 55.808 703.462 L 55.808 64.538 C 55.808 57.191 61.773 51.227 69.119 51.227 Z" style="fill:none;stroke:#000000;stroke-width:1;stroke-linecap:round;stroke-miterlimit:3;"/><rect x="84.998" y="155.442" width="854.004" height="533.116" transform="matrix(1,0,0,1,0,0)" fill="rgb(235,235,235)" fill-opacity="0.11"/><g id="console"><path d=" M 85.619 91.475 C 88.314 81.418 98.667 75.44 108.725 78.135 C 118.782 80.83 124.76 91.183 122.065 101.241 C 119.37 111.298 109.017 117.276 98.959 114.581 C 88.902 111.886 82.924 101.533 85.619 91.475 Z " fill="rgb(255,0,0)"/><path d=" M 136.361 91.475 C 139.056 81.418 149.409 75.44 159.467 78.135 C 169.525 80.83 175.502 91.183 172.807 101.241 C 170.112 111.298 159.759 117.276 149.701 114.581 C 139.644 111.886 133.666 101.533 136.361 91.475 Z " fill="rgb(255,255,0)"/><path d=" M 189.922 91.475 C 192.617 81.418 202.971 75.44 213.028 78.135 C 223.086 80.83 229.063 91.183 226.368 101.241 C 223.673 111.298 213.32 117.276 203.263 114.581 C 193.205 111.886 187.228 101.533 189.922 91.475 Z " fill="rgb(0,255,0)"/><g transform="matrix(2.819,0,0,2.819,110.895,187.418)"><text transform="matrix(1,0,0,1,0,14.7)" style="font-family:&quot;CamingoCode&quot;;font-weight:400;font-size:14px;font-style:normal;fill:#e6a500;stroke:none;">var </text><text transform="matrix(1,0,0,1,30.8,14.7)" style="font-family:&quot;CamingoCode&quot;;font-weight:400;font-size:14px;font-style:normal;fill:#008ee6;stroke:none;">name = </text><text transform="matrix(1,0,0,1,84.7,14.7)" style="font-family:&quot;CamingoCode&quot;;font-weight:400;font-size:14px;font-style:normal;fill:#2ee600;stroke:none;">'José Daniel'</text><text transform="matrix(1,0,0,1,184.8,14.7)" style="font-family:&quot;CamingoCode&quot;;font-weight:400;font-size:14px;font-style:normal;fill:#0671b3;stroke:none;">;</text><text transform="matrix(1,0,0,1,0,51.1)" style="font-family:&quot;CamingoCode&quot;;font-weight:400;font-size:14px;font-style:normal;fill:#e6a500;stroke:none;">function </text><text transform="matrix(1,0,0,1,69.3,51.1)" style="font-family:&quot;CamingoCode&quot;;font-weight:400;font-size:14px;font-style:normal;fill:#e64100;stroke:none;">greet</text><text transform="matrix(1,0,0,1,107.8,51.1)" style="font-family:&quot;CamingoCode&quot;;font-weight:400;font-size:14px;font-style:normal;fill:#008ee6;stroke:none;">(name) {    </text><text transform="matrix(1,0,0,1,15.4,87.5)" style="font-family:&quot;CamingoCode&quot;;font-weight:400;font-size:14px;font-style:normal;fill:#0671b3;stroke:none;">console.</text><text transform="matrix(1,0,0,1,77,87.5)" style="font-family:&quot;CamingoCode&quot;;font-weight:400;font-size:14px;font-style:normal;fill:#e6a500;stroke:none;">log(</text><text transform="matrix(1,0,0,1,107.8,87.5)" style="font-family:&quot;CamingoCode&quot;;font-weight:400;font-size:14px;font-style:normal;fill:#00e6d3;stroke:none;">`Hello ${</text><text transform="matrix(1,0,0,1,177.1,87.5)" style="font-family:&quot;CamingoCode&quot;;font-weight:400;font-size:14px;font-style:normal;fill:#008ee6;stroke:none;">name</text><text transform="matrix(1,0,0,1,207.9,87.5)" style="font-family:&quot;CamingoCode&quot;;font-weight:400;font-size:14px;font-style:normal;fill:#00e6d3;stroke:none;">}!`</text><text transform="matrix(1,0,0,1,231,87.5)" style="font-family:&quot;CamingoCode&quot;;font-weight:400;font-size:14px;font-style:normal;fill:#e6a500;stroke:none;">)</text><text transform="matrix(1,0,0,1,238.7,87.5)" style="font-family:&quot;CamingoCode&quot;;font-weight:400;font-size:14px;font-style:normal;fill:#008ee6;stroke:none;">;</text><text transform="matrix(1,0,0,1,0,123.9)" style="font-family:&quot;CamingoCode&quot;;font-weight:400;font-size:14px;font-style:normal;fill:#008ee6;stroke:none;">};</text><text transform="matrix(1,0,0,1,0,160.3)" style="font-family:&quot;CamingoCode&quot;;font-weight:400;font-size:14px;font-style:normal;fill:#e64100;stroke:none;">greet</text><text transform="matrix(1,0,0,1,38.5,160.3)" style="font-family:&quot;CamingoCode&quot;;font-weight:400;font-size:14px;font-style:normal;fill:#008ee6;stroke:none;">(name);</text></g></g></g></svg>
