<?xml version="1.0" encoding="UTF-8" standalone="no"?>
<!-- Created with Inkscape (http://www.inkscape.org/) -->

<svg
   xmlns:dc="http://purl.org/dc/elements/1.1/"
   xmlns:cc="http://creativecommons.org/ns#"
   xmlns:rdf="http://www.w3.org/1999/02/22-rdf-syntax-ns#"
   xmlns:svg="http://www.w3.org/2000/svg"
   xmlns="http://www.w3.org/2000/svg"
   xmlns:sodipodi="http://sodipodi.sourceforge.net/DTD/sodipodi-0.dtd"
   xmlns:inkscape="http://www.inkscape.org/namespaces/inkscape"
   viewBox="0 0 137.58333 137.58334"
   version="1.1"
   id="svg8"
   inkscape:version="0.92.3 (unknown)"
   sodipodi:docname="ligth.svg"
   inkscape:export-filename="/media/guest-hlaymo/JARVIS/Paginas/ligth.png"
   inkscape:export-xdpi="96"
   inkscape:export-ydpi="96">
  <defs
     id="defs2" />
  <sodipodi:namedview
     id="base"
     pagecolor="#ffffff"
     bordercolor="#666666"
     borderopacity="1.0"
     inkscape:pageopacity="0.0"
     inkscape:pageshadow="2"
     inkscape:zoom="3.959798"
     inkscape:cx="185.05964"
     inkscape:cy="176.54999"
     inkscape:document-units="px"
     inkscape:current-layer="layer1"
     showgrid="false"
     units="px"
     showguides="true"
     inkscape:snap-global="true"
     inkscape:window-width="1375"
     inkscape:window-height="876"
     inkscape:window-x="65"
     inkscape:window-y="24"
     inkscape:window-maximized="1" />
  <metadata
     id="metadata5">
    <rdf:RDF>
      <cc:Work
         rdf:about="">
        <dc:format>image/svg+xml</dc:format>
        <dc:type
           rdf:resource="http://purl.org/dc/dcmitype/StillImage" />
        <dc:title />
      </cc:Work>
    </rdf:RDF>
  </metadata>
  <g
     inkscape:label="Layer 1"
     inkscape:groupmode="layer"
     id="layer1"
     transform="translate(0,-159.41666)">
    <g
       id="g3713"
       transform="translate(4.7191391,31.642553)">
      <g
         transform="matrix(0.40988851,0,0,0.33677471,24.013007,162.37637)"
         id="g3250">
        <g
           id="g3190">
          <g
             id="g3188">
            <path
               inkscape:connector-curvature="0"
               style="fill:#010002"
               d="M 189.523,0 H 14.102 C 7.192,0 1.566,5.622 1.566,12.53 v 132.128 c 0,6.911 5.626,12.533 12.537,12.533 h 49.542 c 3.679,4.767 11.109,16.212 8.511,21.656 -1.056,2.19 -3.922,3.303 -8.532,3.303 -24.93,0 -25.65,8.836 -25.65,9.838 v 11.635 H 165.657 V 188.42 l -0.709,-0.533 c -0.308,-0.236 -7.741,-5.737 -26.083,-5.737 -4.008,0 -4.806,-1.568 -5.071,-2.079 -2.29,-4.484 3.912,-16.076 8.682,-22.88 h 47.048 c 6.911,0 12.533,-5.622 12.533,-12.533 V 12.53 C 202.057,5.622 196.431,0 189.523,0 Z m -58.915,181.695 c 1.36,2.673 4.137,4.03 8.256,4.03 13.94,0 21.069,3.346 23.209,4.567 v 9.756 H 41.549 v -7.97 c 0.183,-1.764 4.513,-6.352 22.074,-6.352 6.109,0 10.06,-1.793 11.76,-5.336 3.275,-6.832 -3.493,-17.873 -7.272,-23.195 h 70.049 c -3.733,5.689 -10.866,18.029 -7.552,24.5 z m 67.87,-37.034 c 0,4.942 -4.012,8.954 -8.954,8.954 H 145.05 60.781 14.102 c -4.939,0 -8.954,-4.012 -8.954,-8.954 V 12.53 c 0,-4.939 4.015,-8.954 8.954,-8.954 h 175.421 c 4.942,0 8.954,4.015 8.954,8.954 0.001,0 0.001,132.131 0.001,132.131 z"
               id="path3180" />
            <path
               inkscape:connector-curvature="0"
               style="fill:#010002"
               d="m 12.313,130.675 h 179 V 13.009 h -179 z M 15.888,16.584 H 187.73 V 127.102 H 15.888 Z"
               id="path3182" />
            <circle
               style="fill:#010002"
               cx="101.809"
               cy="144.049"
               r="5.9089999"
               id="circle3184" />
          </g>
        </g>
        <g
           id="g3192" />
        <g
           id="g3194" />
        <g
           id="g3196" />
        <g
           id="g3198" />
        <g
           id="g3200" />
        <g
           id="g3202" />
        <g
           id="g3204" />
        <g
           id="g3206" />
        <g
           id="g3208" />
        <g
           id="g3210" />
        <g
           id="g3212" />
        <g
           id="g3214" />
        <g
           id="g3216" />
        <g
           id="g3218" />
        <g
           id="g3220" />
      </g>
      <g
         transform="matrix(0.65640336,0,0,0.53397231,66.591951,98.606731)"
         id="g3577">
        <polygon
           transform="matrix(0.26458334,0,0,0.26458334,-69.069683,102.80733)"
           id="polygon3391"
           points="52.966,101.517 52.966,366.345 459.034,366.345 459.034,101.517 "
           style="fill:#546a79" />
        <path
           id="path3393"
           d="M 45.376368,195.0649 H 10.34183 c -1.2916947,0 -2.3357407,-1.04643 -2.3357407,-2.33574 0,-1.28932 1.044046,-2.33575 2.3357407,-2.33575 h 35.034538 c 1.2917,0 2.33574,1.04643 2.33574,2.33575 0,1.28931 -1.04431,2.33574 -2.33574,2.33574"
           style="fill:#ea6148;stroke-width:0.26458335"
           inkscape:connector-curvature="0" />
        <path
           id="path3395"
           d="m -24.692707,181.05098 h -23.356359 c -1.291696,0 -2.335741,-1.04643 -2.335741,-2.33575 0,-1.28931 1.044045,-2.33574 2.335741,-2.33574 h 23.356359 c 1.291695,0 2.335741,1.04643 2.335741,2.33574 0,1.28932 -1.044046,2.33575 -2.335741,2.33575"
           style="fill:#ea6148;stroke-width:0.26458335"
           inkscape:connector-curvature="0" />
        <path
           id="path3397"
           d="M 33.698189,181.05098 H -1.3363487 c -1.291696,0 -2.335742,-1.04643 -2.335742,-2.33575 0,-1.28931 1.044046,-2.33574 2.335742,-2.33574 H 33.698189 c 1.291696,0 2.335742,1.04643 2.335742,2.33574 0,1.28932 -1.044311,2.33575 -2.335742,2.33575"
           style="fill:#ea6148;stroke-width:0.26458335"
           inkscape:connector-curvature="0" />
        <path
           id="path3399"
           d="m -13.014528,181.05098 c -0.607219,0 -1.216819,-0.25691 -1.658409,-0.67734 -0.422804,-0.4437 -0.677333,-1.05092 -0.677333,-1.65841 0,-0.30374 0.07012,-0.60721 0.186796,-0.88741 0.116681,-0.30374 0.280194,-0.56065 0.490537,-0.77073 0.86413,-0.86413 2.42914,-0.86413 3.316553,0 0.420423,0.44371 0.677333,1.05093 0.677333,1.65841 0,0.60748 -0.25691,1.21444 -0.677333,1.65841 -0.116682,0.0934 -0.236009,0.21008 -0.373592,0.28019 -0.116681,0.0934 -0.259292,0.16351 -0.39714,0.21008 -0.142345,0.0701 -0.280193,0.11668 -0.446087,0.14023 -0.137583,0.0233 -0.301096,0.0466 -0.441325,0.0466"
           style="fill:#ea6148;stroke-width:0.26458335"
           inkscape:connector-curvature="0" />
        <path
           id="path3401"
           d="M -1.3363487,195.0649 H -36.370887 c -1.291696,0 -2.335741,-1.04643 -2.335741,-2.33574 0,-1.28932 1.044045,-2.33575 2.335741,-2.33575 h 35.0345383 c 1.29169601,0 2.33574201,1.04643 2.33574201,2.33575 0,1.28931 -1.044046,2.33574 -2.33574201,2.33574"
           style="fill:#ea6148;stroke-width:0.26458335"
           inkscape:connector-curvature="0" />
        <path
           id="path3403"
           d="m -48.049066,195.0649 c -0.303741,0 -0.607218,-0.0701 -0.887412,-0.1868 -0.280194,-0.11668 -0.537104,-0.28019 -0.770732,-0.49054 -0.422804,-0.4437 -0.677333,-1.02764 -0.677333,-1.6584 0,-0.30375 0.07012,-0.60722 0.186796,-0.88742 0.116681,-0.30374 0.280194,-0.5371 0.490537,-0.77073 0.560653,-0.5371 1.354667,-0.77073 2.099734,-0.6305 0.165894,0.0233 0.303742,0.0701 0.446087,0.14023 0.137848,0.0468 0.280194,0.11668 0.39714,0.21008 0.137848,0.0934 0.25691,0.18679 0.373592,0.28019 0.210079,0.23363 0.373591,0.46726 0.490537,0.77073 0.116681,0.2802 0.186796,0.58394 0.186796,0.88742 0,0.6305 -0.25691,1.21443 -0.677333,1.6584 -0.116682,0.0934 -0.236009,0.1868 -0.373592,0.2802 -0.116681,0.0934 -0.259292,0.16351 -0.39714,0.21008 -0.142345,0.0701 -0.280193,0.11668 -0.446087,0.14023 -0.137848,0.0233 -0.301361,0.0468 -0.44159,0.0468"
           style="fill:#ea6148;stroke-width:0.26458335"
           inkscape:connector-curvature="0" />
        <path
           id="path3405"
           d="m 45.376368,181.05098 c -0.14235,0 -0.30374,-0.0233 -0.443706,-0.0468 -0.163512,-0.0233 -0.303742,-0.0701 -0.443706,-0.14022 -0.140229,-0.0468 -0.280194,-0.11669 -0.422804,-0.21008 -0.114565,-0.0934 -0.231246,-0.1868 -0.347927,-0.2802 -0.422805,-0.4437 -0.677334,-1.05092 -0.677334,-1.65841 0,-0.60748 0.254529,-1.21443 0.677334,-1.6584 l 0.347927,-0.2802 c 0.14261,-0.0934 0.282575,-0.16351 0.422804,-0.21008 0.140229,-0.0701 0.280194,-0.11668 0.443706,-0.14023 0.747446,-0.16351 1.562626,0.0934 2.102116,0.63051 0.0934,0.11668 0.18679,0.23362 0.28019,0.37359 0.0934,0.11668 0.16113,0.25691 0.21008,0.39714 0.0701,0.14023 0.11668,0.28019 0.13785,0.4437 0.0257,0.14023 0.049,0.30375 0.049,0.44371 0,0.14023 -0.0233,0.30374 -0.049,0.46725 -0.0209,0.14023 -0.0677,0.2802 -0.13785,0.42043 -0.049,0.14023 -0.11668,0.28019 -0.21008,0.42042 -0.0934,0.11668 -0.18679,0.23363 -0.28019,0.35031 -0.11668,0.0934 -0.23601,0.18679 -0.35031,0.28019 -0.14023,0.0934 -0.28257,0.16351 -0.42042,0.21008 -0.14235,0.0701 -0.2802,0.11668 -0.44609,0.14023 -0.13811,0.0238 -0.30163,0.0471 -0.44159,0.0471"
           style="fill:#ea6148;stroke-width:0.26458335"
           inkscape:connector-curvature="0" />
        <path
           id="path3407"
           d="M 45.376368,153.0234 H 10.34183 c -1.2916947,0 -2.3357407,-1.04643 -2.3357407,-2.33574 0,-1.28932 1.044046,-2.33574 2.3357407,-2.33574 h 35.034538 c 1.2917,0 2.33574,1.04642 2.33574,2.33574 0,1.28931 -1.04431,2.33574 -2.33574,2.33574"
           style="fill:#ea6148;stroke-width:0.26458335"
           inkscape:connector-curvature="0" />
        <path
           id="path3409"
           d="M 45.376368,167.03732 H 22.02001 c -1.291696,0 -2.335742,-1.04643 -2.335742,-2.33574 0,-1.28932 1.044046,-2.33574 2.335742,-2.33574 h 23.356358 c 1.2917,0 2.33574,1.04642 2.33574,2.33574 -2.6e-4,1.28931 -1.04431,2.33574 -2.33574,2.33574"
           style="fill:#ea6148;stroke-width:0.26458335"
           inkscape:connector-curvature="0" />
        <path
           id="path3411"
           d="m 3.3348703,167.03732 h -4.671219 c -1.291696,0 -2.335742,-1.04643 -2.335742,-2.33574 0,-1.28932 1.044046,-2.33574 2.335742,-2.33574 h 4.671219 c 1.291696,0 2.335742,1.04642 2.335742,2.33574 0,1.28931 -1.044046,2.33574 -2.335742,2.33574"
           style="fill:#ea6148;stroke-width:0.26458335"
           inkscape:connector-curvature="0" />
        <path
           id="path3413"
           d="M 33.698189,139.00974 H -1.3363487 c -1.291696,0 -2.335742,-1.04642 -2.335742,-2.33574 0,-1.28931 1.044046,-2.33574 2.335742,-2.33574 H 33.698189 c 1.291696,0 2.335742,1.04643 2.335742,2.33574 -2.65e-4,1.28932 -1.044311,2.33574 -2.335742,2.33574"
           style="fill:#ea6148;stroke-width:0.26458335"
           inkscape:connector-curvature="0" />
        <path
           id="path3415"
           d="m 45.376368,139.00974 c -0.14235,0 -0.30374,-0.0233 -0.443706,-0.0468 -0.163512,-0.0233 -0.303742,-0.0701 -0.443706,-0.14023 -0.140229,-0.0468 -0.280194,-0.11668 -0.422804,-0.21008 -0.114565,-0.0934 -0.231246,-0.18679 -0.347927,-0.28019 -0.422805,-0.44371 -0.677334,-1.05093 -0.677334,-1.65841 0,-0.60722 0.254529,-1.21444 0.677334,-1.65841 l 0.347927,-0.28019 c 0.14261,-0.0934 0.282575,-0.16351 0.422804,-0.21008 0.140229,-0.0701 0.280194,-0.11668 0.443706,-0.14023 0.747446,-0.16351 1.562626,0.0934 2.102116,0.6305 0.0934,0.11668 0.18679,0.23363 0.28019,0.37359 0.0934,0.11669 0.16113,0.25691 0.21008,0.39714 0.0701,0.14023 0.11668,0.2802 0.13785,0.44371 0.0257,0.14023 0.049,0.30374 0.049,0.44371 0,0.14023 -0.0233,0.30374 -0.049,0.46725 -0.0209,0.14023 -0.0677,0.28019 -0.13785,0.42042 -0.049,0.14023 -0.11668,0.2802 -0.21008,0.42043 -0.0934,0.11668 -0.18679,0.23362 -0.28019,0.3503 -0.11668,0.0934 -0.23601,0.1868 -0.35031,0.2802 -0.14023,0.0934 -0.28257,0.16351 -0.42042,0.21008 -0.14235,0.0701 -0.2802,0.11668 -0.44609,0.14023 -0.13811,0.0235 -0.30163,0.0471 -0.44159,0.0471"
           style="fill:#ea6148;stroke-width:0.26458335"
           inkscape:connector-curvature="0" />
        <path
           id="path3417"
           d="m 0.99939331,153.0234 c -0.632883,0 -1.216819,-0.25691 -1.658409,-0.67733 -0.42280401,-0.44371 -0.67733301,-1.02765 -0.67733301,-1.65841 0,-0.60722 0.254529,-1.21444 0.67733301,-1.65841 0.537105,-0.53711 1.354667,-0.79402 2.09973399,-0.6305 0.165894,0.0233 0.303742,0.0701 0.446087,0.14023 0.137848,0.0468 0.280194,0.11668 0.39714,0.21007 0.137848,0.0701 0.25691,0.1868 0.350308,0.2802 0.443707,0.4437 0.700617,1.05092 0.700617,1.65841 0,0.6305 -0.25691,1.21443 -0.700617,1.65841 -0.420423,0.42042 -1.004358,0.67733 -1.63485999,0.67733"
           style="fill:#ea6148;stroke-width:0.26458335"
           inkscape:connector-curvature="0" />
        <path
           id="path3419"
           d="m 12.677572,167.03732 c -0.163512,0 -0.303742,-0.0233 -0.467254,-0.0468 -0.140229,-0.0233 -0.280194,-0.0701 -0.420423,-0.14023 -0.140229,-0.0468 -0.280194,-0.11668 -0.422804,-0.21008 -0.114565,-0.0934 -0.231246,-0.1868 -0.347927,-0.28019 -0.422804,-0.44371 -0.677334,-1.02765 -0.677334,-1.65841 0,-0.60722 0.25453,-1.21444 0.677334,-1.65841 0.864129,-0.86413 2.452423,-0.86413 3.316552,0 0.420423,0.44371 0.677333,1.05092 0.677333,1.65841 0,0.16351 -0.02328,0.30374 -0.04895,0.46725 -0.0209,0.14023 -0.06773,0.2802 -0.137848,0.42043 -0.04895,0.14022 -0.116681,0.28019 -0.210079,0.42042 -0.0934,0.11668 -0.186796,0.23363 -0.280193,0.35031 -0.443971,0.42042 -1.05119,0.67733 -1.658409,0.67733"
           style="fill:#ea6148;stroke-width:0.26458335"
           inkscape:connector-curvature="0" />
        <polygon
           transform="matrix(0.26458334,0,0,0.26458334,-69.069683,102.80733)"
           id="polygon3423"
           points="79.448,119.172 79.448,242.759 203.034,242.759 203.034,119.172 "
           style="fill:#ecba16" />
      </g>
    </g>
    <g
       id="g953"
       transform="matrix(0.26458334,0,0,0.26458334,152.22162,127.20308)" />
    <g
       id="g959"
       transform="matrix(0.26458334,0,0,0.26458334,147.68591,107.92629)" />
    <g
       id="g961"
       transform="matrix(0.26458334,0,0,0.26458334,147.68591,107.92629)" />
    <g
       id="g963"
       transform="matrix(0.26458334,0,0,0.26458334,147.68591,107.92629)" />
    <g
       id="g965"
       transform="matrix(0.26458334,0,0,0.26458334,147.68591,107.92629)" />
    <g
       id="g967"
       transform="matrix(0.26458334,0,0,0.26458334,147.68591,107.92629)" />
    <g
       id="g969"
       transform="matrix(0.26458334,0,0,0.26458334,147.68591,107.92629)" />
    <g
       id="g971"
       transform="matrix(0.26458334,0,0,0.26458334,147.68591,107.92629)" />
    <g
       id="g973"
       transform="matrix(0.26458334,0,0,0.26458334,147.68591,107.92629)" />
    <g
       id="g975"
       transform="matrix(0.26458334,0,0,0.26458334,147.68591,107.92629)" />
    <g
       id="g977"
       transform="matrix(0.26458334,0,0,0.26458334,147.68591,107.92629)" />
    <g
       id="g979"
       transform="matrix(0.26458334,0,0,0.26458334,147.68591,107.92629)" />
    <g
       id="g981"
       transform="matrix(0.26458334,0,0,0.26458334,147.68591,107.92629)" />
    <g
       id="g983"
       transform="matrix(0.26458334,0,0,0.26458334,147.68591,107.92629)" />
    <g
       id="g985"
       transform="matrix(0.26458334,0,0,0.26458334,147.68591,107.92629)" />
    <g
       id="g987"
       transform="matrix(0.26458334,0,0,0.26458334,147.68591,107.92629)" />
    <g
       id="g1429">
      <g
         id="g1403">
        <g
           id="g1378">
          <g
             transform="translate(3.2072343,-10.690781)"
             id="g1719">
            <path
               style="fill:#ffffff;fill-opacity:1;stroke:#6b0000;stroke-width:0.12630869;stroke-opacity:1"
               d="m 61.55741,277.14261 h -1.48337 v -30.02547 c 0,-1.98962 -1.618645,-3.60839 -3.608387,-3.60839 H 9.5311139 c -1.9897415,0 -3.6083879,1.61864 -3.6083879,3.60839 v 30.02534 H 4.4392308 c -0.523297,0 -0.947315,0.42414 -0.947315,0.94732 v 2.60259 c 0,1.69051 1.375375,3.06576 3.0657642,3.06576 h 52.881155 c 1.690515,0 3.065763,-1.37538 3.065763,-3.06576 v -2.60259 c 1.26e-4,-0.52305 -0.423891,-0.94719 -0.947188,-0.94719 z"
               id="path1457"
               inkscape:connector-curvature="0" />
            <path
               style="fill:#000000;fill-opacity:1;stroke-width:0.12630869"
               inkscape:connector-curvature="0"
               d="M 55.773229,246.35069 H 10.223537 c -0.8044601,0 -1.4589917,0.65441 -1.4589917,1.45887 v 26.92674 c 0,0.80446 0.6545316,1.45886 1.4589917,1.45886 h 45.549692 c 0.804334,0 1.458866,-0.6544 1.458866,-1.45886 v -26.92661 c 0,-0.80446 -0.654532,-1.459 -1.458866,-1.459 z m 0.195779,28.38561 c 0,0.10799 -0.08779,0.19578 -0.195779,0.19578 H 10.223537 c -0.107994,0 -0.195905,-0.0879 -0.195905,-0.19578 v -26.92661 c 0,-0.108 0.08779,-0.19578 0.195905,-0.19578 h 45.549692 c 0.107868,0 0.195779,0.0879 0.195779,0.19578 z"
               id="path815" />
            <path
               style="fill:#000000;fill-opacity:1;stroke:none;stroke-width:0.12630869;stroke-opacity:1"
               inkscape:connector-curvature="0"
               d="M 61.557409,277.1426 H 60.07404 v -30.02547 c 0,-1.98961 -1.618646,-3.60838 -3.608386,-3.60838 H 9.5311127 c -1.9897408,0 -3.6083867,1.61864 -3.6083867,3.60838 v 30.02535 H 4.4392305 c -0.5232969,0 -0.9473152,0.42414 -0.9473152,0.94731 v 2.60259 c 0,1.69052 1.3753753,3.06577 3.0657645,3.06577 H 59.438834 c 1.690515,0 3.065764,-1.37538 3.065764,-3.06577 v -2.60259 c 1.27e-4,-0.52304 -0.423892,-0.94719 -0.947189,-0.94719 z M 7.8172301,247.11713 c 0,-0.94491 0.768841,-1.71375 1.7137563,-1.71375 H 56.465527 c 0.944916,0 1.713757,0.76871 1.713757,1.71375 v 30.02535 H 7.8172301 Z m 22.4022359,31.92011 h 5.557582 v 0.49538 c 0,0.22167 -0.180369,0.40216 -0.402167,0.40216 h -4.753375 c -0.221798,0 -0.402167,-0.18036 -0.402167,-0.40216 v -0.49538 z m 30.390755,1.65527 c 0,0.64582 -0.525318,1.17113 -1.171135,1.17113 H 6.5578061 c -0.6458163,0 -1.1711341,-0.52544 -1.1711341,-1.17113 v -1.65527 H 6.8700412 28.956505 v 0.49538 c 0,0.91826 0.74699,1.66525 1.665254,1.66525 h 4.753375 c 0.918264,0 1.665254,-0.74699 1.665254,-1.66525 v -0.49538 h 22.086463 1.48337 z"
               id="path817" />
            <polygon
               transform="matrix(0.11353046,0,0,0.10400661,3.8546669,236.90127)"
               id="polygon1286"
               points="459.034,101.517 52.966,101.517 52.966,366.345 459.034,366.345 "
               style="fill:#546a79" />
            <path
               id="path1288"
               d="M 52.962494,273.16733 H 37.929472 c -0.554256,0 -1.002247,-0.41135 -1.002247,-0.91817 0,-0.50682 0.447991,-0.91817 1.002247,-0.91817 h 15.033022 c 0.554256,0 1.002247,0.41135 1.002247,0.91817 0,0.50682 -0.448104,0.91817 -1.002247,0.91817"
               style="fill:#ea6148;stroke-width:0.10866424"
               inkscape:connector-curvature="0" />
            <path
               id="path1290"
               d="M 22.89645,267.65852 H 12.874435 c -0.554256,0 -1.002247,-0.41135 -1.002247,-0.91817 0,-0.50683 0.447991,-0.91817 1.002247,-0.91817 H 22.89645 c 0.554256,0 1.002247,0.41134 1.002247,0.91817 0,0.50682 -0.447991,0.91817 -1.002247,0.91817"
               style="fill:#ea6148;stroke-width:0.10866424"
               inkscape:connector-curvature="0" />
            <path
               id="path1292"
               d="M 47.951487,267.65852 H 32.918465 c -0.554256,0 -1.002247,-0.41135 -1.002247,-0.91817 0,-0.50683 0.447991,-0.91817 1.002247,-0.91817 h 15.033022 c 0.554256,0 1.002247,0.41134 1.002247,0.91817 0,0.50682 -0.448105,0.91817 -1.002247,0.91817"
               style="fill:#ea6148;stroke-width:0.10866424"
               inkscape:connector-curvature="0" />
            <path
               id="path1294"
               d="m 27.907457,267.65852 c -0.260552,0 -0.522126,-0.10099 -0.711609,-0.26626 -0.181421,-0.17442 -0.290638,-0.41312 -0.290638,-0.65191 0,-0.1194 0.03009,-0.2387 0.08015,-0.34884 0.05007,-0.1194 0.120229,-0.22039 0.210485,-0.30297 0.370791,-0.33969 1.042323,-0.33969 1.423105,0 0.1804,0.17442 0.290638,0.41311 0.290638,0.65191 0,0.2388 -0.110238,0.47739 -0.290638,0.65191 -0.05007,0.0367 -0.10127,0.0826 -0.160305,0.11015 -0.05007,0.0367 -0.11126,0.0643 -0.17041,0.0826 -0.06108,0.0276 -0.120228,0.0459 -0.191412,0.0551 -0.05904,0.009 -0.129198,0.0183 -0.189369,0.0183"
               style="fill:#ea6148;stroke-width:0.10866424"
               inkscape:connector-curvature="0" />
            <path
               id="path1296"
               d="M 32.918465,273.16733 H 17.885442 c -0.554255,0 -1.002247,-0.41135 -1.002247,-0.91817 0,-0.50682 0.447992,-0.91817 1.002247,-0.91817 h 15.033023 c 0.554255,0 1.002247,0.41135 1.002247,0.91817 0,0.50682 -0.447992,0.91817 -1.002247,0.91817"
               style="fill:#ea6148;stroke-width:0.10866424"
               inkscape:connector-curvature="0" />
            <path
               id="path1298"
               d="m 12.874435,273.16733 c -0.130333,0 -0.260552,-0.0276 -0.380781,-0.0734 -0.120229,-0.0459 -0.230467,-0.11014 -0.330714,-0.19283 -0.181422,-0.17442 -0.290638,-0.40396 -0.290638,-0.65191 0,-0.1194 0.03008,-0.2387 0.08015,-0.34884 0.05007,-0.1194 0.120229,-0.21113 0.210486,-0.30297 0.240571,-0.21113 0.581275,-0.30297 0.900977,-0.24785 0.07118,0.009 0.130333,0.0276 0.191413,0.0551 0.05915,0.0184 0.120228,0.0459 0.170409,0.0826 0.05915,0.0367 0.110238,0.0734 0.160305,0.11014 0.09014,0.0918 0.160305,0.18368 0.210485,0.30297 0.05007,0.11014 0.08015,0.22954 0.08015,0.34884 0,0.24785 -0.110238,0.47739 -0.290638,0.65191 -0.05007,0.0367 -0.101269,0.0734 -0.160305,0.11015 -0.05007,0.0367 -0.11126,0.0643 -0.170409,0.0826 -0.06108,0.0276 -0.120229,0.0459 -0.191413,0.0551 -0.05915,0.009 -0.129311,0.0184 -0.189482,0.0184"
               style="fill:#ea6148;stroke-width:0.10866424"
               inkscape:connector-curvature="0" />
            <path
               id="path1300"
               d="m 52.962494,267.65852 c -0.06108,0 -0.130332,-0.009 -0.19039,-0.0184 -0.07016,-0.009 -0.130333,-0.0276 -0.190391,-0.0551 -0.06017,-0.0184 -0.120228,-0.0459 -0.181421,-0.0826 -0.04916,-0.0367 -0.09923,-0.0734 -0.149293,-0.11014 -0.181422,-0.17442 -0.290638,-0.41312 -0.290638,-0.65191 0,-0.2388 0.109216,-0.47739 0.290638,-0.65192 l 0.149293,-0.11014 c 0.06119,-0.0367 0.12125,-0.0643 0.181421,-0.0826 0.06017,-0.0276 0.120229,-0.0459 0.190391,-0.0551 0.320723,-0.0643 0.670511,0.0367 0.901999,0.24785 0.04008,0.0459 0.08015,0.0918 0.120229,0.14686 0.04008,0.0459 0.06914,0.10099 0.09014,0.15611 0.03009,0.0551 0.05007,0.11015 0.05915,0.17442 0.01101,0.0551 0.021,0.1194 0.021,0.17442 0,0.0551 -0.01,0.1194 -0.021,0.18368 -0.009,0.0551 -0.02906,0.11014 -0.05915,0.16526 -0.021,0.0551 -0.05007,0.11015 -0.09014,0.16527 -0.04008,0.0459 -0.08015,0.0918 -0.120229,0.1377 -0.05007,0.0367 -0.101269,0.0734 -0.150314,0.11015 -0.06017,0.0367 -0.12125,0.0643 -0.1804,0.0826 -0.06108,0.0276 -0.120229,0.0459 -0.191412,0.0551 -0.05926,0.009 -0.129425,0.0185 -0.189483,0.0185"
               style="fill:#ea6148;stroke-width:0.10866424"
               inkscape:connector-curvature="0" />
            <path
               id="path1302"
               d="M 52.962494,256.64099 H 37.929472 c -0.554256,0 -1.002247,-0.41134 -1.002247,-0.91817 0,-0.50682 0.447991,-0.91817 1.002247,-0.91817 h 15.033022 c 0.554256,0 1.002247,0.41135 1.002247,0.91817 0,0.50683 -0.448104,0.91817 -1.002247,0.91817"
               style="fill:#ea6148;stroke-width:0.10866424"
               inkscape:connector-curvature="0" />
            <path
               id="path1304"
               d="M 52.962494,262.14981 H 42.94048 c -0.554256,0 -1.002247,-0.41135 -1.002247,-0.91817 0,-0.50683 0.447991,-0.91817 1.002247,-0.91817 h 10.022014 c 0.554256,0 1.002247,0.41134 1.002247,0.91817 -1.13e-4,0.50682 -0.448104,0.91817 -1.002247,0.91817"
               style="fill:#ea6148;stroke-width:0.10866424"
               inkscape:connector-curvature="0" />
            <path
               id="path1306"
               d="m 34.922845,262.14981 h -2.00438 c -0.554256,0 -1.002247,-0.41135 -1.002247,-0.91817 0,-0.50683 0.447991,-0.91817 1.002247,-0.91817 h 2.00438 c 0.554256,0 1.002247,0.41134 1.002247,0.91817 0,0.50682 -0.447991,0.91817 -1.002247,0.91817"
               style="fill:#ea6148;stroke-width:0.10866424"
               inkscape:connector-curvature="0" />
            <path
               id="path1308"
               d="M 47.951487,251.13228 H 32.918465 c -0.554256,0 -1.002247,-0.41134 -1.002247,-0.91817 0,-0.50682 0.447991,-0.91817 1.002247,-0.91817 h 15.033022 c 0.554256,0 1.002247,0.41135 1.002247,0.91817 -1.14e-4,0.50683 -0.448105,0.91817 -1.002247,0.91817"
               style="fill:#ea6148;stroke-width:0.10866424"
               inkscape:connector-curvature="0" />
            <path
               id="path1310"
               d="m 52.962494,251.13228 c -0.06108,0 -0.130332,-0.009 -0.19039,-0.0184 -0.07016,-0.009 -0.130333,-0.0276 -0.190391,-0.0551 -0.06017,-0.0184 -0.120228,-0.0459 -0.181421,-0.0826 -0.04916,-0.0367 -0.09923,-0.0734 -0.149293,-0.11015 -0.181422,-0.17441 -0.290638,-0.41311 -0.290638,-0.65191 0,-0.23869 0.109216,-0.47739 0.290638,-0.65191 l 0.149293,-0.11015 c 0.06119,-0.0367 0.12125,-0.0643 0.181421,-0.0826 0.06017,-0.0276 0.120229,-0.0459 0.190391,-0.0551 0.320723,-0.0643 0.670511,0.0367 0.901999,0.24785 0.04008,0.0459 0.08015,0.0918 0.120229,0.14686 0.04008,0.0459 0.06914,0.10099 0.09014,0.15611 0.03009,0.0551 0.05007,0.11014 0.05915,0.17442 0.01101,0.0551 0.021,0.1194 0.021,0.17442 0,0.0551 -0.01,0.1194 -0.021,0.18367 -0.009,0.0551 -0.02906,0.11015 -0.05915,0.16527 -0.021,0.0551 -0.05007,0.11014 -0.09014,0.16527 -0.04008,0.0459 -0.08015,0.0918 -0.120229,0.1377 -0.05007,0.0367 -0.101269,0.0734 -0.150314,0.11014 -0.06017,0.0367 -0.12125,0.0643 -0.1804,0.0826 -0.06108,0.0276 -0.120229,0.0459 -0.191412,0.0551 -0.05926,0.009 -0.129425,0.0185 -0.189483,0.0185"
               style="fill:#ea6148;stroke-width:0.10866424"
               inkscape:connector-curvature="0" />
            <path
               id="path1312"
               d="m 33.920712,256.64099 c -0.271565,0 -0.522127,-0.10099 -0.711609,-0.26626 -0.181422,-0.17441 -0.290638,-0.40396 -0.290638,-0.65191 0,-0.23869 0.109216,-0.47739 0.290638,-0.65191 0.230467,-0.21114 0.581276,-0.31213 0.900977,-0.24785 0.07118,0.009 0.130333,0.0276 0.191413,0.0551 0.05915,0.0184 0.120229,0.0459 0.170409,0.0826 0.05915,0.0276 0.110238,0.0734 0.150314,0.11015 0.190391,0.17442 0.300629,0.41311 0.300629,0.65191 0,0.24785 -0.110238,0.47739 -0.300629,0.65191 -0.1804,0.16527 -0.430961,0.26626 -0.701504,0.26626"
               style="fill:#ea6148;stroke-width:0.10866424"
               inkscape:connector-curvature="0" />
            <path
               id="path1314"
               d="m 38.931719,262.14981 c -0.07016,0 -0.130333,-0.009 -0.200495,-0.0184 -0.06017,-0.009 -0.120229,-0.0276 -0.1804,-0.0551 -0.06017,-0.0184 -0.120228,-0.0459 -0.181421,-0.0826 -0.04916,-0.0367 -0.09923,-0.0734 -0.149293,-0.11014 -0.181422,-0.17442 -0.290638,-0.40396 -0.290638,-0.65191 0,-0.2387 0.109216,-0.47739 0.290638,-0.65192 0.370791,-0.33968 1.052314,-0.33968 1.423104,0 0.1804,0.17442 0.290638,0.41312 0.290638,0.65192 0,0.0643 -0.01,0.1194 -0.021,0.18367 -0.009,0.0551 -0.02906,0.11014 -0.05915,0.16527 -0.021,0.0551 -0.05007,0.11014 -0.09014,0.16526 -0.04008,0.0459 -0.08015,0.0918 -0.120229,0.13771 -0.190504,0.16527 -0.451057,0.26626 -0.711609,0.26626"
               style="fill:#ea6148;stroke-width:0.10866424"
               inkscape:connector-curvature="0" />
            <polygon
               transform="matrix(0.11353046,0,0,0.10400661,3.8546669,236.90127)"
               id="polygon1316"
               points="203.034,119.172 79.448,119.172 79.448,242.759 203.034,242.759 "
               style="fill:#ecba16" />
            <path
               id="path1383"
               d="M 55.773229,246.35069 H 10.223537 c -0.8044601,0 -1.4589917,0.65441 -1.4589917,1.45887 v 26.92674 c 0,0.80446 0.6545316,1.45886 1.4589917,1.45886 h 45.549692 c 0.804334,0 1.458866,-0.6544 1.458866,-1.45886 v -26.92661 c 0,-0.80446 -0.654532,-1.459 -1.458866,-1.459 z m 0.195779,28.38561 c 0,0.10799 -0.08779,0.19578 -0.195779,0.19578 H 10.223537 c -0.107994,0 -0.195905,-0.0879 -0.195905,-0.19578 v -26.92661 c 0,-0.108 0.08779,-0.19578 0.195905,-0.19578 h 45.549692 c 0.107868,0 0.195779,0.0879 0.195779,0.19578 z"
               inkscape:connector-curvature="0"
               style="fill:#000000;fill-opacity:1;stroke-width:0.12630869" />
            <path
               sodipodi:nodetypes="scsssscsssssscsssssccsccssssccsssscccssssccas"
               id="path1385"
               d="M 61.557409,277.1426 H 60.07404 v -30.02547 c 0,-1.98961 -1.618646,-3.60838 -3.608386,-3.60838 H 9.5311127 c -1.9897408,0 -3.6083867,1.61864 -3.6083867,3.60838 v 30.02535 H 4.4392305 c -0.5232969,0 -0.9473152,0.42414 -0.9473152,0.94731 v 2.60259 c 0,1.69052 1.3753753,3.06577 3.0657645,3.06577 H 59.438834 c 1.690515,0 3.065764,-1.37538 3.065764,-3.06577 v -2.60259 c 1.27e-4,-0.52304 -0.423892,-0.94719 -0.947189,-0.94719 z M 7.8172301,247.11713 c 0,-0.94491 0.768841,-1.71375 1.7137563,-1.71375 H 56.465527 c 0.944916,0 1.88158,0.76872 1.876459,1.71375 l -0.162702,30.02535 H 7.8172301 Z m 22.4022359,31.92011 h 5.557582 v 0.49538 c 0,0.22167 -0.180369,0.40216 -0.402167,0.40216 h -4.753375 c -0.221798,0 -0.402167,-0.18036 -0.402167,-0.40216 v -0.49538 z m 30.390755,1.65527 c 0,0.64582 -0.525318,1.17113 -1.171135,1.17113 H 6.5578061 c -0.6458163,0 -1.1711341,-0.52544 -1.1711341,-1.17113 v -1.65527 H 6.8700412 28.956505 v 0.49538 c 0,0.91826 0.74699,1.66525 1.665254,1.66525 h 4.753375 c 0.918264,0 1.665254,-0.74699 1.665254,-1.66525 v -0.49538 h 22.086463 1.48337 z"
               inkscape:connector-curvature="0"
               style="fill:#000000;fill-opacity:1;stroke:none;stroke-width:0.12630869;stroke-opacity:1" />
          </g>
        </g>
      </g>
    </g>
    <g
       id="g1882"
       transform="matrix(1.1930123,0,0,1.1930123,6.447289,190.63828)" />
    <g
       id="g1884"
       transform="matrix(1.1930123,0,0,1.1930123,6.447289,190.63828)" />
    <g
       id="g1886"
       transform="matrix(1.1930123,0,0,1.1930123,6.447289,190.63828)" />
    <g
       id="g1888"
       transform="matrix(1.1930123,0,0,1.1930123,6.447289,190.63828)" />
    <g
       id="g1890"
       transform="matrix(1.1930123,0,0,1.1930123,6.447289,190.63828)" />
    <g
       id="g1892"
       transform="matrix(1.1930123,0,0,1.1930123,6.447289,190.63828)" />
    <g
       id="g1894"
       transform="matrix(1.1930123,0,0,1.1930123,6.447289,190.63828)" />
    <g
       id="g1896"
       transform="matrix(1.1930123,0,0,1.1930123,6.447289,190.63828)" />
    <g
       id="g1898"
       transform="matrix(1.1930123,0,0,1.1930123,6.447289,190.63828)" />
    <g
       id="g1900"
       transform="matrix(1.1930123,0,0,1.1930123,6.447289,190.63828)" />
    <g
       id="g1902"
       transform="matrix(1.1930123,0,0,1.1930123,6.447289,190.63828)" />
    <g
       id="g1904"
       transform="matrix(1.1930123,0,0,1.1930123,6.447289,190.63828)" />
    <g
       id="g1906"
       transform="matrix(1.1930123,0,0,1.1930123,6.447289,190.63828)" />
    <g
       id="g1908"
       transform="matrix(1.1930123,0,0,1.1930123,6.447289,190.63828)" />
    <g
       id="g1910"
       transform="matrix(1.1930123,0,0,1.1930123,6.447289,190.63828)" />
    <g
       id="g1914"
       transform="matrix(1.1930123,0,0,1.1930123,1.9115747,186.66953)" />
    <g
       id="g1916"
       transform="matrix(1.1930123,0,0,1.1930123,1.9115747,186.66953)" />
    <g
       id="g1918"
       transform="matrix(1.1930123,0,0,1.1930123,1.9115747,186.66953)" />
    <g
       id="g1920"
       transform="matrix(1.1930123,0,0,1.1930123,1.9115747,186.66953)" />
    <g
       id="g1922"
       transform="matrix(1.1930123,0,0,1.1930123,1.9115747,186.66953)" />
    <g
       id="g1924"
       transform="matrix(1.1930123,0,0,1.1930123,1.9115747,186.66953)" />
    <g
       id="g1926"
       transform="matrix(1.1930123,0,0,1.1930123,1.9115747,186.66953)" />
    <g
       id="g1928"
       transform="matrix(1.1930123,0,0,1.1930123,1.9115747,186.66953)" />
    <g
       id="g1930"
       transform="matrix(1.1930123,0,0,1.1930123,1.9115747,186.66953)" />
    <g
       id="g1932"
       transform="matrix(1.1930123,0,0,1.1930123,1.9115747,186.66953)" />
    <g
       id="g1934"
       transform="matrix(1.1930123,0,0,1.1930123,1.9115747,186.66953)" />
    <g
       id="g1936"
       transform="matrix(1.1930123,0,0,1.1930123,1.9115747,186.66953)" />
    <g
       id="g1938"
       transform="matrix(1.1930123,0,0,1.1930123,1.9115747,186.66953)" />
    <g
       id="g1940"
       transform="matrix(1.1930123,0,0,1.1930123,1.9115747,186.66953)" />
    <g
       id="g1942"
       transform="matrix(1.1930123,0,0,1.1930123,1.9115747,186.66953)" />
    <g
       id="g1677">
      <g
         id="g1629">
        <polygon
           style="fill:#546a79;stroke:none;stroke-opacity:1"
           points="459.034,101.517 52.966,101.517 52.966,366.345 459.034,366.345 "
           id="polygon1146-1"
           transform="matrix(0.05965625,0,0,0.12078441,84.164631,224.88762)" />
        <g
           style="stroke:none;stroke-opacity:1"
           id="g1834"
           transform="matrix(1.1930123,0,0,1.1930123,79.202143,234.23295)">
          <g
             style="stroke:none;stroke-opacity:1"
             id="g1763">
            <g
               style="stroke:none;stroke-opacity:1"
               id="g1733" />
            <g
               style="stroke:none;stroke-opacity:1"
               id="g1735" />
            <g
               style="stroke:none;stroke-opacity:1"
               id="g1737" />
            <g
               style="stroke:none;stroke-opacity:1"
               id="g1739" />
            <g
               style="stroke:none;stroke-opacity:1"
               id="g1741" />
            <g
               style="stroke:none;stroke-opacity:1"
               id="g1743" />
            <g
               style="stroke:none;stroke-opacity:1"
               id="g1745" />
            <g
               style="stroke:none;stroke-opacity:1"
               id="g1747" />
            <g
               style="stroke:none;stroke-opacity:1"
               id="g1749" />
            <g
               style="stroke:none;stroke-opacity:1"
               id="g1751" />
            <g
               style="stroke:none;stroke-opacity:1"
               id="g1753" />
            <g
               style="stroke:none;stroke-opacity:1"
               id="g1755" />
            <g
               style="stroke:none;stroke-opacity:1"
               id="g1757" />
            <g
               style="stroke:none;stroke-opacity:1"
               id="g1759" />
            <g
               style="stroke:none;stroke-opacity:1"
               id="g1761" />
            <path
               style="stroke:#000000;stroke-opacity:1;fill:#ffffff;fill-opacity:1;stroke-width:0.66732863;stroke-miterlimit:4;stroke-dasharray:none"
               id="path1731"
               d="M 27.125,0 H 6.867 C 5.59,0 4.562,1.033 4.562,2.309 v 29.377 c 0,1.272 1.028,2.308 2.305,2.308 h 20.258 c 1.273,0 2.306,-1.035 2.306,-2.308 V 2.309 C 29.433,1.033 28.399,0 27.125,0 Z M 16.997,33.129 c -0.758,0 -1.371,-0.613 -1.371,-1.37 0,-0.758 0.613,-1.372 1.371,-1.372 0.756,0 1.371,0.614 1.371,1.372 0,0.757 -0.615,1.37 -1.371,1.37 z M 27.098,29.186 H 6.896 V 2.774 h 20.202 z"
               inkscape:connector-curvature="0" />
          </g>
          <g
             style="stroke:none;stroke-opacity:1"
             id="g1765" />
          <g
             style="stroke:none;stroke-opacity:1"
             id="g1767" />
          <g
             style="stroke:none;stroke-opacity:1"
             id="g1769" />
          <g
             style="stroke:none;stroke-opacity:1"
             id="g1771" />
          <g
             style="stroke:none;stroke-opacity:1"
             id="g1773" />
          <g
             style="stroke:none;stroke-opacity:1"
             id="g1775" />
          <g
             style="stroke:none;stroke-opacity:1"
             id="g1777" />
          <g
             style="stroke:none;stroke-opacity:1"
             id="g1779" />
          <g
             style="stroke:none;stroke-opacity:1"
             id="g1781" />
          <g
             style="stroke:none;stroke-opacity:1"
             id="g1783" />
          <g
             style="stroke:none;stroke-opacity:1"
             id="g1785" />
          <g
             style="stroke:none;stroke-opacity:1"
             id="g1787" />
          <g
             style="stroke:none;stroke-opacity:1"
             id="g1789" />
          <g
             style="stroke:none;stroke-opacity:1"
             id="g1791" />
          <g
             style="stroke:none;stroke-opacity:1"
             id="g1793" />
        </g>
        <path
           inkscape:connector-curvature="0"
           style="fill:#ea6148;stroke:none;stroke-width:0.13732822;stroke-opacity:1"
           d="M 104.67481,254.10199 H 90.837603 c -0.76525,0 -1.38379,-0.47585 -1.38379,-1.06213 0,-0.58628 0.61854,-1.06213 1.38379,-1.06213 h 13.837207 c 0.76526,0 1.38379,0.47585 1.38379,1.06213 0,0.58628 -0.61853,1.06213 -1.38379,1.06213"
           id="path1150-9" />
        <path
           inkscape:connector-curvature="0"
           style="fill:#ea6148;stroke:none;stroke-width:0.12520878;stroke-opacity:1"
           d="M 107.63812,261.72205 H 90.384109 c -0.63614,0 -1.150315,-0.47584 -1.150315,-1.06213 0,-0.58628 0.514175,-1.06212 1.150315,-1.06212 h 17.254011 c 0.63614,0 1.15032,0.47584 1.15032,1.06212 0,0.58629 -0.51431,1.06213 -1.15032,1.06213"
           id="path1152-7" />
        <path
           inkscape:connector-curvature="0"
           style="fill:#ea6148;stroke:none;stroke-width:0.13732822;stroke-opacity:1"
           d="m 104.41188,246.8172 c -0.35974,0 -0.72089,-0.11683 -0.9825,-0.308 -0.25049,-0.20177 -0.40128,-0.47788 -0.40128,-0.75413 0,-0.1381 0.0415,-0.27612 0.11066,-0.40353 0.0691,-0.13811 0.166,-0.25494 0.29062,-0.35046 0.51194,-0.39294 1.43912,-0.39294 1.96485,0 0.24908,0.20177 0.40128,0.47788 0.40128,0.75413 0,0.27624 -0.1522,0.55222 -0.40128,0.7541 -0.0691,0.0425 -0.13982,0.0955 -0.22133,0.12742 -0.0691,0.0425 -0.15361,0.0743 -0.23528,0.0955 -0.0843,0.0319 -0.166,0.0531 -0.26428,0.0638 -0.0815,0.0107 -0.17838,0.0212 -0.26146,0.0212"
           id="path1154-7" />
        <path
           inkscape:connector-curvature="0"
           style="fill:#ea6148;stroke:none;stroke-width:0.11076175;stroke-opacity:1"
           d="M 108.79028,257.94506 H 95.288229 c -0.497816,0 -0.900182,-0.47584 -0.900182,-1.06213 0,-0.58628 0.402366,-1.06212 0.900182,-1.06212 h 13.502051 c 0.49781,0 0.90019,0.47584 0.90019,1.06212 0,0.58629 -0.40238,1.06213 -0.90019,1.06213"
           id="path1156-6" />
        <path
           inkscape:connector-curvature="0"
           style="fill:#ea6148;stroke:none;stroke-width:0.13732822;stroke-opacity:1"
           d="m 91.593555,266.94987 c -0.17995,0 -0.35974,-0.0319 -0.52574,-0.0849 -0.166,-0.0531 -0.3182,-0.12742 -0.45661,-0.22307 -0.25049,-0.20177 -0.40128,-0.4673 -0.40128,-0.75411 0,-0.13812 0.0415,-0.27612 0.11066,-0.40353 0.0691,-0.13812 0.166,-0.24424 0.29062,-0.35047 0.33215,-0.24423 0.80256,-0.35047 1.24396,-0.28671 0.0983,0.0107 0.17995,0.0319 0.26428,0.0638 0.0817,0.0213 0.166,0.0531 0.23528,0.0955 0.0817,0.0425 0.15221,0.0849 0.22133,0.12741 0.12446,0.10622 0.22133,0.21248 0.29062,0.35046 0.0691,0.12741 0.11066,0.26553 0.11066,0.40353 0,0.28671 -0.1522,0.55224 -0.40128,0.75412 -0.0691,0.0425 -0.13982,0.0849 -0.22133,0.12742 -0.0691,0.0425 -0.15361,0.0743 -0.23528,0.0955 -0.0843,0.0319 -0.166,0.0531 -0.26428,0.0638 -0.0817,0.0107 -0.17854,0.0213 -0.26161,0.0213"
           id="path1158-7" />
        <path
           inkscape:connector-curvature="0"
           style="fill:#ea6148;stroke:none;stroke-width:0.13732822;stroke-opacity:1"
           d="m 91.285434,258.04792 c -0.0843,0 -0.17995,-0.0107 -0.26287,-0.0213 -0.0969,-0.0107 -0.17995,-0.0319 -0.26287,-0.0638 -0.0831,-0.0213 -0.166,-0.0531 -0.25048,-0.0955 -0.0679,-0.0425 -0.137,-0.0849 -0.20613,-0.12741 -0.25049,-0.20177 -0.40128,-0.47788 -0.40128,-0.75413 0,-0.27624 0.15079,-0.55223 0.40128,-0.75411 l 0.20613,-0.12742 c 0.0845,-0.0425 0.1674,-0.0743 0.25048,-0.0955 0.0831,-0.0319 0.166,-0.0531 0.26287,-0.0638 0.44282,-0.0743 0.92576,0.0425 1.24537,0.28672 0.0553,0.0531 0.11067,0.10622 0.166,0.16989 0.0553,0.0531 0.0955,0.11681 0.12446,0.18058 0.0415,0.0638 0.0691,0.1274 0.0817,0.20176 0.0152,0.0638 0.029,0.13812 0.029,0.20177 0,0.0638 -0.0138,0.13813 -0.029,0.21248 -0.0124,0.0638 -0.0401,0.1274 -0.0817,0.19118 -0.029,0.0638 -0.0691,0.1274 -0.12446,0.19118 -0.0553,0.053 -0.11066,0.10621 -0.166,0.15929 -0.0691,0.0425 -0.13982,0.0849 -0.20753,0.1274 -0.0831,0.0425 -0.16741,0.0744 -0.24908,0.0955 -0.0843,0.0319 -0.16599,0.0531 -0.26428,0.0638 -0.0818,0.0108 -0.17869,0.0214 -0.26161,0.0214"
           id="path1160-3" />
        <path
           inkscape:connector-curvature="0"
           style="fill:#ea6148;stroke:none;stroke-width:0.12075018;stroke-opacity:1"
           d="m 108.5717,241.21381 h -2.43334 c -0.67287,0 -1.21673,-0.4184 -1.21673,-0.93391 0,-0.51551 0.54387,-0.93391 1.21673,-0.93391 h 2.43334 c 0.67288,0 1.21674,0.4184 1.21674,0.93391 0,0.51551 -0.54386,0.93391 -1.21674,0.93391"
           id="path1166-6" />
        <path
           inkscape:connector-curvature="0"
           style="fill:#ea6148;stroke:none;stroke-width:0.13732822;stroke-opacity:1"
           d="m 108.45562,266.64332 c -0.0843,0 -0.17995,-0.0107 -0.26287,-0.0213 -0.0969,-0.0107 -0.17995,-0.0319 -0.26287,-0.0638 -0.0831,-0.0213 -0.166,-0.053 -0.25048,-0.0955 -0.0679,-0.0425 -0.137,-0.0849 -0.20613,-0.1274 -0.25049,-0.20177 -0.40128,-0.47788 -0.40128,-0.75413 0,-0.27612 0.15079,-0.55224 0.40128,-0.75411 l 0.20613,-0.12741 c 0.0845,-0.0425 0.1674,-0.0744 0.25048,-0.0955 0.0831,-0.0319 0.166,-0.0531 0.26287,-0.0638 0.44282,-0.0743 0.92576,0.0425 1.24537,0.28671 0.0553,0.0531 0.11067,0.10621 0.166,0.16988 0.0553,0.0531 0.0955,0.11683 0.12446,0.18059 0.0415,0.0638 0.0691,0.12741 0.0817,0.20177 0.0152,0.0638 0.029,0.13812 0.029,0.20176 0,0.0638 -0.0138,0.13812 -0.029,0.21248 -0.0124,0.0638 -0.0401,0.12741 -0.0817,0.19117 -0.029,0.0638 -0.0691,0.12742 -0.12446,0.19118 -0.0553,0.0531 -0.11066,0.10621 -0.166,0.1593 -0.0691,0.0425 -0.13982,0.0849 -0.20753,0.12741 -0.0831,0.0425 -0.16741,0.0743 -0.24908,0.0955 -0.0843,0.0319 -0.16599,0.0531 -0.26428,0.0638 -0.0818,0.0107 -0.17869,0.0214 -0.26161,0.0214"
           id="path1170-9" />
        <path
           inkscape:connector-curvature="0"
           style="fill:#ea6148;stroke:none;stroke-width:0.09753978;stroke-opacity:1"
           d="m 102.74469,241.20708 c -0.26631,0 -0.51202,-0.083 -0.69784,-0.21876 -0.17791,-0.14331 -0.28502,-0.3319 -0.28502,-0.53562 0,-0.19612 0.10711,-0.39223 0.28502,-0.53563 0.226,-0.17347 0.57003,-0.25644 0.88354,-0.20365 0.0698,0.007 0.12781,0.0227 0.18772,0.0453 0.058,0.0151 0.11789,0.0377 0.16711,0.0679 0.058,0.0227 0.1081,0.0603 0.1474,0.0905 0.18671,0.14331 0.29481,0.33943 0.29481,0.53563 0,0.20363 -0.1081,0.39223 -0.29481,0.53562 -0.17691,0.13579 -0.42262,0.21876 -0.68793,0.21876"
           id="path1172-4" />
        <path
           inkscape:connector-curvature="0"
           style="fill:#ea6148;stroke:none;stroke-width:0.13732822;stroke-opacity:1"
           d="m 108.76607,254.10379 c -0.0969,0 -0.17995,-0.0107 -0.27682,-0.0213 -0.0831,-0.0107 -0.166,-0.0319 -0.24908,-0.0638 -0.0831,-0.0213 -0.166,-0.0531 -0.25048,-0.0955 -0.0679,-0.0425 -0.137,-0.0849 -0.20613,-0.12741 -0.25049,-0.20176 -0.40128,-0.46729 -0.40128,-0.75412 0,-0.27612 0.15079,-0.55224 0.40128,-0.75412 0.51195,-0.39294 1.45291,-0.39294 1.96485,0 0.24908,0.20178 0.40128,0.47788 0.40128,0.75412 0,0.0743 -0.0138,0.13812 -0.029,0.21247 -0.0124,0.0638 -0.0401,0.12741 -0.0817,0.19118 -0.029,0.0638 -0.0691,0.12741 -0.12445,0.19117 -0.0553,0.0531 -0.11067,0.10622 -0.166,0.15931 -0.26303,0.19118 -0.62277,0.30799 -0.98251,0.30799"
           id="path1174-8" />
        <polygon
           style="fill:#ecba16;stroke:none;stroke-opacity:1"
           points="79.448,119.172 79.448,242.759 203.034,242.759 203.034,119.172 "
           id="polygon1176-1"
           transform="matrix(0.09078958,0,0,0.08557982,82.50961,228.56474)" />
      </g>
    </g>
    <g
       id="g1354">
      <g
         id="g1304">
        <g
           id="g1255">
          <g
             transform="translate(3.2072343,-10.690781)"
             id="g3178">
            <g
               id="g1878"
               transform="matrix(1.2906523,0,0,1.2906523,-40.556783,-79.380665)">
              <g
                 transform="matrix(0.62580257,0,0,0.53908778,139.46032,163.72145)"
                 id="g1729">
                <polygon
                   style="fill:#546a79"
                   points="459.034,101.517 52.966,101.517 52.966,366.345 459.034,366.345 "
                   id="polygon1564"
                   transform="matrix(0.0409265,0,0,0.10400661,-31.231341,173.40126)" />
                <path
                   inkscape:connector-curvature="0"
                   style="fill:#ea6148;stroke-width:0.10866424"
                   d="m -15.657123,198.11089 h -10.022015 c -0.554255,0 -1.002247,-0.41134 -1.002247,-0.91817 0,-0.50682 0.447992,-0.91817 1.002247,-0.91817 h 10.022015 c 0.554256,0 1.002247,0.41135 1.002247,0.91817 0,0.50683 -0.447991,0.91817 -1.002247,0.91817"
                   id="path1568" />
                <path
                   inkscape:connector-curvature="0"
                   style="fill:#ea6148;stroke-width:0.06881173"
                   d="m -17.216032,202.45762 h -6.028343 c -0.222261,0 -0.401908,-0.41134 -0.401908,-0.91817 0,-0.50682 0.179647,-0.91817 0.401908,-0.91817 h 6.028343 c 0.22226,0 0.401907,0.41135 0.401907,0.91817 0,0.50683 -0.179693,0.91817 -0.401907,0.91817"
                   id="path1570" />
                <path
                   inkscape:connector-curvature="0"
                   style="fill:#ea6148;stroke-width:0.10866424"
                   d="m -14.992842,209.26119 c -0.260553,0 -0.522127,-0.10099 -0.711609,-0.26625 -0.181422,-0.17442 -0.290638,-0.41312 -0.290638,-0.65192 0,-0.1194 0.03009,-0.23869 0.08015,-0.34883 0.05007,-0.1194 0.120229,-0.22039 0.210486,-0.30298 0.37079,-0.33968 1.042323,-0.33968 1.423104,0 0.1804,0.17442 0.290638,0.41312 0.290638,0.65192 0,0.2388 -0.110238,0.47739 -0.290638,0.65191 -0.05007,0.0367 -0.101269,0.0826 -0.160305,0.11014 -0.05007,0.0367 -0.11126,0.0643 -0.170409,0.0826 -0.06108,0.0276 -0.120229,0.0459 -0.191413,0.0551 -0.05903,0.009 -0.129197,0.0183 -0.189368,0.0183"
                   id="path1572" />
                <path
                   inkscape:connector-curvature="0"
                   style="fill:#ea6148;stroke-width:0.07160999"
                   d="m -20.187169,209.66733 h -6.528603 c -0.240705,0 -0.43526,-0.41135 -0.43526,-0.91817 0,-0.50683 0.194555,-0.91817 0.43526,-0.91817 h 6.528603 c 0.240705,0 0.43526,0.41134 0.43526,0.91817 0,0.50682 -0.194555,0.91817 -0.43526,0.91817"
                   id="path1574" />
                <path
                   inkscape:connector-curvature="0"
                   style="fill:#ea6148;stroke-width:0.10866424"
                   d="m -25.679138,202.86376 c -0.130333,0 -0.260552,-0.0276 -0.380781,-0.0734 -0.120229,-0.0459 -0.230467,-0.11014 -0.330714,-0.19283 -0.181422,-0.17442 -0.290638,-0.40396 -0.290638,-0.65191 0,-0.1194 0.03009,-0.2387 0.08015,-0.34884 0.05007,-0.1194 0.120229,-0.21113 0.210486,-0.30297 0.240571,-0.21113 0.581276,-0.30297 0.900978,-0.24785 0.07118,0.009 0.130333,0.0276 0.191412,0.0551 0.05915,0.0184 0.120229,0.0459 0.170409,0.0826 0.05915,0.0367 0.110238,0.0734 0.160305,0.11014 0.09014,0.0918 0.160305,0.18367 0.210486,0.30297 0.05007,0.11014 0.08015,0.22954 0.08015,0.34884 0,0.24785 -0.110238,0.47739 -0.290638,0.65191 -0.05007,0.0367 -0.101269,0.0734 -0.160305,0.11014 -0.05007,0.0367 -0.11126,0.0643 -0.170409,0.0826 -0.06108,0.0276 -0.120229,0.0459 -0.191412,0.0551 -0.05915,0.009 -0.129312,0.0184 -0.189483,0.0184"
                   id="path1576" />
                <path
                   inkscape:connector-curvature="0"
                   style="fill:#ea6148;stroke-width:0.10866424"
                   d="M -15.640185,205.83135 H -25.6622 c -0.554256,0 -1.002247,-0.41134 -1.002247,-0.91817 0,-0.50682 0.447991,-0.91817 1.002247,-0.91817 h 10.022015 c 0.554256,0 1.002247,0.41135 1.002247,0.91817 -1.14e-4,0.50683 -0.448105,0.91817 -1.002247,0.91817"
                   id="path1582" />
                <polygon
                   style="fill:#ecba16"
                   points="203.034,119.172 79.448,119.172 79.448,242.759 203.034,242.759 "
                   id="polygon1594"
                   transform="matrix(0.05204902,0,0,0.05798145,-31.18354,179.46237)" />
                <path
                   id="path3131"
                   d="m -16.496534,193.64458 c -0.130333,0 -0.260552,-0.0276 -0.380781,-0.0734 -0.120229,-0.0459 -0.230467,-0.11014 -0.330714,-0.19283 -0.181422,-0.17442 -0.290638,-0.40396 -0.290638,-0.65191 0,-0.1194 0.03009,-0.2387 0.08015,-0.34884 0.05007,-0.1194 0.120229,-0.21113 0.210486,-0.30297 0.240571,-0.21113 0.581276,-0.30297 0.900978,-0.24785 0.07118,0.009 0.130333,0.0276 0.191412,0.0551 0.05915,0.0184 0.120229,0.0459 0.170409,0.0826 0.05915,0.0367 0.110238,0.0734 0.160305,0.11014 0.09014,0.0918 0.160305,0.18367 0.210486,0.30297 0.05007,0.11014 0.08015,0.22954 0.08015,0.34884 0,0.24785 -0.110238,0.47739 -0.290638,0.65191 -0.05007,0.0367 -0.101269,0.0734 -0.160305,0.11014 -0.05007,0.0367 -0.11126,0.0643 -0.170409,0.0826 -0.06108,0.0276 -0.120229,0.0459 -0.191412,0.0551 -0.05915,0.009 -0.129312,0.0184 -0.189483,0.0184"
                   style="fill:#ea6148;stroke-width:0.10866424"
                   inkscape:connector-curvature="0" />
              </g>
              <g
                 transform="matrix(0.82930253,0,0,0.82930253,115.09532,260.10773)"
                 id="g1562">
                <g
                   id="g1491">
                  <path
                     inkscape:connector-curvature="0"
                     d="M 19.494,0 H 7.948 C 6.843,0 5.951,0.896 5.951,1.999 v 23.446 c 0,1.102 0.892,1.997 1.997,1.997 h 11.546 c 1.103,0 1.997,-0.895 1.997,-1.997 V 1.999 C 21.491,0.896 20.597,0 19.494,0 Z m -8.622,1.214 h 5.7 c 0.144,0 0.261,0.215 0.261,0.481 0,0.266 -0.117,0.482 -0.261,0.482 h -5.7 c -0.145,0 -0.26,-0.216 -0.26,-0.482 0,-0.266 0.115,-0.481 0.26,-0.481 z m 2.85,24.255 c -0.703,0 -1.275,-0.572 -1.275,-1.276 0,-0.704 0.572,-1.274 1.275,-1.274 0.701,0 1.273,0.57 1.273,1.274 0,0.704 -0.572,1.276 -1.273,1.276 z M 19.995,21.1 H 7.448 V 3.373 h 12.547 z"
                     id="path1459"
                     style="stroke:#000000;stroke-opacity:1;fill:#ffffff;fill-opacity:1;stroke-width:0.49439063;stroke-miterlimit:4;stroke-dasharray:none" />
                  <g
                     id="g1461" />
                  <g
                     id="g1463" />
                  <g
                     id="g1465" />
                  <g
                     id="g1467" />
                  <g
                     id="g1469" />
                  <g
                     id="g1471" />
                  <g
                     id="g1473" />
                  <g
                     id="g1475" />
                  <g
                     id="g1477" />
                  <g
                     id="g1479" />
                  <g
                     id="g1481" />
                  <g
                     id="g1483" />
                  <g
                     id="g1485" />
                  <g
                     id="g1487" />
                  <g
                     id="g1489" />
                </g>
                <g
                   id="g1493" />
                <g
                   id="g1495" />
                <g
                   id="g1497" />
                <g
                   id="g1499" />
                <g
                   id="g1501" />
                <g
                   id="g1503" />
                <g
                   id="g1505" />
                <g
                   id="g1507" />
                <g
                   id="g1509" />
                <g
                   id="g1511" />
                <g
                   id="g1513" />
                <g
                   id="g1515" />
                <g
                   id="g1517" />
                <g
                   id="g1519" />
                <g
                   id="g1521" />
              </g>
            </g>
            <path
               id="path1166-6-8"
               d="m 127.23425,264.05749 h -2.16607 c -0.59897,0 -1.08309,-0.4184 -1.08309,-0.9339 0,-0.51551 0.48412,-0.93391 1.08309,-0.93391 h 2.16607 c 0.59897,0 1.0831,0.4184 1.0831,0.93391 0,0.5155 -0.48413,0.9339 -1.0831,0.9339"
               style="fill:#ea6148;stroke-width:0.11392613"
               inkscape:connector-curvature="0" />
          </g>
        </g>
      </g>
    </g>
  </g>
</svg>
